<svg width="500" height="500" viewBox="0 0 500 500" fill="none" xmlns="http://www.w3.org/2000/svg">
<mask id="path-1-inside-1_52_75" fill="white">
<path d="M0 248.705C0.697224 111.23 112.358 8.22288e-06 249.998 0C388.07 0 500 111.929 500 250C500 388.071 388.07 500 249.998 500C112.465 500 0.870904 388.944 0.000976562 251.617L0 251.293C0.695538 361.155 89.9716 450 199.998 450C310.456 450 399.999 360.457 399.999 250C399.999 139.543 310.456 50.0002 199.998 50C89.9722 50 0.696555 138.844 0 248.705Z"/>
</mask>
<path d="M0 248.705C0.697224 111.23 112.358 8.22288e-06 249.998 0C388.07 0 500 111.929 500 250C500 388.071 388.07 500 249.998 500C112.465 500 0.870904 388.944 0.000976562 251.617L0 251.293C0.695538 361.155 89.9716 450 199.998 450C310.456 450 399.999 360.457 399.999 250C399.999 139.543 310.456 50.0002 199.998 50C89.9722 50 0.696555 138.844 0 248.705Z" fill="#FFF3B0"/>
<path d="M0 248.705L-3.99995 248.685L3.99992 248.73L0 248.705ZM249.998 0V-4V-4V0ZM0.000976562 251.617L-3.99903 251.629L-3.99894 251.643L0.000976562 251.617ZM0 251.293L3.99992 251.268L-3.99998 251.305L0 251.293ZM199.998 450V454V454V450ZM399.999 250H403.999V250H399.999ZM199.998 50V46V46V50ZM0 248.705L3.99995 248.725C4.68601 113.45 114.56 4.00001 249.998 4V0V-4C110.155 -3.99999 -3.29157 109.009 -3.99995 248.685L0 248.705ZM249.998 0V4C385.861 4 496 114.138 496 250H500H504C504 109.72 390.279 -4 249.998 -4V0ZM500 250H496C496 385.862 385.861 496 249.998 496V500V504C390.279 504 504 390.28 504 250H500ZM249.998 500V496C114.666 496 4.8569 386.721 4.0009 251.592L0.000976562 251.617L-3.99894 251.643C-3.11509 391.167 110.265 504 249.998 504V500ZM0.000976562 251.617L4.00096 251.605L3.99998 251.281L0 251.293L-3.99998 251.305L-3.99901 251.629L0.000976562 251.617ZM0 251.293L-3.99992 251.318C-3.29047 363.378 87.7709 454 199.998 454V450V446C92.1722 446 4.68154 358.932 3.99992 251.268L0 251.293ZM199.998 450V454C312.665 454 403.999 362.666 403.999 250H399.999H395.999C395.999 358.248 308.247 446 199.998 446V450ZM399.999 250H403.999C403.999 137.334 312.665 46.0002 199.998 46V50V54C308.247 54.0002 395.999 141.752 395.999 250H399.999ZM199.998 50V46C87.7716 46 -3.28943 136.621 -3.99992 248.68L0 248.705L3.99992 248.73C4.68254 141.067 92.1728 54 199.998 54V50Z" fill="#FFC83D" mask="url(#path-1-inside-1_52_75)"/>
</svg>
