<svg width="1290" height="115" viewBox="0 0 1290 115" fill="none" xmlns="http://www.w3.org/2000/svg">
<mask id="path-1-outside-1_52_64" maskUnits="userSpaceOnUse" x="-0.96582" y="-0.417603" width="1291" height="115" fill="black">
<rect fill="white" x="-0.96582" y="-0.417603" width="1291" height="115"/>
<path d="M63.6954 33.8658C63.2693 29.5689 61.4404 26.2308 58.2089 23.8516C54.9774 21.4723 50.5917 20.2827 45.0519 20.2827C41.2877 20.2827 38.1095 20.8153 35.5171 21.8807C32.9248 22.9105 30.9362 24.3487 29.5512 26.1953C28.2018 28.0419 27.5271 30.1371 27.5271 32.4808C27.4561 34.434 27.8644 36.1385 28.7522 37.5945C29.6755 39.0504 30.9362 40.3111 32.5342 41.3764C34.1322 42.4063 35.9788 43.3118 38.074 44.093C40.1691 44.8388 42.4063 45.478 44.7856 46.0107L54.5867 48.3544C59.3453 49.4198 63.7132 50.8402 67.6904 52.6158C71.6677 54.3913 75.1123 56.5753 78.0242 59.1676C80.9362 61.76 83.1911 64.8139 84.7892 68.3296C86.4227 71.8452 87.2572 75.8757 87.2927 80.4212C87.2572 87.0973 85.5527 92.8857 82.1791 97.7862C78.841 102.651 74.0115 106.433 67.6904 109.132C61.4049 111.795 53.8232 113.127 44.9454 113.127C36.1386 113.127 28.4681 111.778 21.934 109.079C15.4355 106.38 10.3573 102.385 6.69966 97.0938C3.0775 91.7671 1.17765 85.1797 1.00009 77.3317H23.319C23.5676 80.9894 24.6151 84.0433 26.4617 86.4936C28.3438 88.9084 30.8474 90.7372 33.9724 91.9801C37.1329 93.1875 40.7018 93.7912 44.6791 93.7912C48.5853 93.7912 51.9767 93.223 54.8531 92.0867C57.765 90.9503 60.02 89.37 61.618 87.3459C63.216 85.3217 64.015 82.9957 64.015 80.3679C64.015 77.9176 63.287 75.858 61.8311 74.1889C60.4106 72.5199 58.3154 71.0994 55.5455 69.9276C52.8112 68.7557 49.4553 67.6904 45.4781 66.7315L33.5995 63.7486C24.4021 61.5114 17.14 58.0135 11.8133 53.255C6.48659 48.4965 3.841 42.0867 3.87651 34.0256C3.841 27.4205 5.59881 21.6499 9.14995 16.7138C12.7366 11.7777 17.6549 7.92473 23.9049 5.15484C30.1549 2.38495 37.2572 1.00001 45.2117 1.00001C53.3083 1.00001 60.3751 2.38495 66.412 5.15484C72.4845 7.92473 77.2075 11.7777 80.5811 16.7138C83.9546 21.6499 85.6947 27.3672 85.8012 33.8658H63.6954ZM102.807 111.582V2.49149H125.871V47.5021H172.693V2.49149H195.704V111.582H172.693V66.5185H125.871V111.582H102.807ZM237.785 2.49149V111.582H214.721V2.49149H237.785ZM348.008 2.49149V111.582H328.086L280.625 42.9212H279.826V111.582H256.762V2.49149H277.003L324.091 71.0994H325.05V2.49149H348.008ZM405.736 111.582H367.065V2.49149H406.056C417.029 2.49149 426.475 4.67544 434.394 9.04333C442.313 13.3757 448.403 19.608 452.665 27.7401C456.962 35.8722 459.11 45.6023 459.11 56.9304C459.11 68.294 456.962 78.0597 452.665 86.2273C448.403 94.3949 442.278 100.663 434.288 105.031C426.333 109.398 416.816 111.582 405.736 111.582ZM390.129 91.8203H404.778C411.596 91.8203 417.331 90.6129 421.983 88.1982C426.67 85.7479 430.186 81.9659 432.53 76.8523C434.909 71.7031 436.099 65.0625 436.099 56.9304C436.099 48.8693 434.909 42.282 432.53 37.1683C430.186 32.0547 426.688 28.2905 422.036 25.8757C417.384 23.4609 411.649 22.2536 404.831 22.2536H390.129V91.8203ZM576.444 57.0369C576.444 68.9332 574.189 79.054 569.679 87.3992C565.205 95.7443 559.097 102.119 551.355 106.522C543.649 110.89 534.984 113.074 525.361 113.074C515.666 113.074 506.966 110.872 499.26 106.469C491.554 102.065 485.464 95.6911 480.989 87.3459C476.515 79.0007 474.278 68.8977 474.278 57.0369C474.278 45.1406 476.515 35.0199 480.989 26.6747C485.464 18.3296 491.554 11.973 499.26 7.60513C506.966 3.20171 515.666 1.00001 525.361 1.00001C534.984 1.00001 543.649 3.20171 551.355 7.60513C559.097 11.973 565.205 18.3296 569.679 26.6747C574.189 35.0199 576.444 45.1406 576.444 57.0369ZM553.06 57.0369C553.06 49.331 551.906 42.8324 549.597 37.5412C547.325 32.25 544.111 28.2372 539.956 25.5029C535.801 22.7685 530.936 21.4013 525.361 21.4013C519.786 21.4013 514.921 22.7685 510.766 25.5029C506.611 28.2372 503.379 32.25 501.071 37.5412C498.798 42.8324 497.662 49.331 497.662 57.0369C497.662 64.7429 498.798 71.2415 501.071 76.5327C503.379 81.8239 506.611 85.8367 510.766 88.571C514.921 91.3054 519.786 92.6726 525.361 92.6726C530.936 92.6726 535.801 91.3054 539.956 88.571C544.111 85.8367 547.325 81.8239 549.597 76.5327C551.906 71.2415 553.06 64.7429 553.06 57.0369ZM684.776 2.49149V111.582H664.854L617.393 42.9212H616.594V111.582H593.529V2.49149H613.771L660.859 71.0994H661.818V2.49149H684.776ZM776.169 37.7543C775.423 35.1619 774.375 32.8715 773.026 30.8828C771.677 28.8587 770.025 27.1541 768.072 25.7692C766.155 24.3487 763.953 23.2656 761.467 22.5199C759.017 21.7742 756.3 21.4013 753.317 21.4013C747.742 21.4013 742.841 22.7862 738.616 25.5561C734.425 28.326 731.158 32.3565 728.814 37.6477C726.471 42.9034 725.299 49.331 725.299 56.9304C725.299 64.5298 726.453 70.9929 728.761 76.3196C731.069 81.6463 734.336 85.7124 738.562 88.5178C742.788 91.2877 747.777 92.6726 753.53 92.6726C758.75 92.6726 763.207 91.7493 766.9 89.9027C770.629 88.0206 773.47 85.375 775.423 81.9659C777.412 78.5568 778.406 74.5263 778.406 69.8743L783.093 70.5668H754.968V53.2017H800.618V66.9446C800.618 76.5327 798.594 84.7713 794.546 91.6605C790.498 98.5142 784.922 103.805 777.82 107.534C770.718 111.227 762.586 113.074 753.424 113.074C743.196 113.074 734.212 110.819 726.471 106.309C718.729 101.764 712.692 95.3182 708.36 86.973C704.063 78.5923 701.915 68.6492 701.915 57.1435C701.915 48.3011 703.193 40.4176 705.75 33.4929C708.342 26.5327 711.964 20.6378 716.616 15.8083C721.268 10.9787 726.684 7.30327 732.863 4.78197C739.042 2.26066 745.736 1.00001 752.944 1.00001C759.123 1.00001 764.876 1.90555 770.203 3.71663C775.53 5.4922 780.253 8.0135 784.372 11.2805C788.527 14.5476 791.918 18.4361 794.546 22.946C797.174 27.4205 798.861 32.3565 799.606 37.7543H776.169ZM842.5 111.582L811.285 2.49149H836.48L854.538 78.2905H855.443L875.365 2.49149H896.938L916.807 78.4503H917.766L935.823 2.49149H961.019L929.804 111.582H907.326L886.551 40.2578H885.699L864.978 111.582H842.5ZM973.363 111.582V2.49149H996.428V47.5021H1043.25V2.49149H1066.26V111.582H1043.25V66.5185H996.428V111.582H973.363ZM1104.08 111.582H1079.36L1117.02 2.49149H1146.75L1184.35 111.582H1159.64L1132.31 27.4205H1131.46L1104.08 111.582ZM1102.54 68.7024H1160.92V86.7067H1102.54V68.7024ZM1288.73 2.49149V111.582H1268.81L1221.35 42.9212H1220.55V111.582H1197.48V2.49149H1217.73L1264.81 71.0994H1265.77V2.49149H1288.73Z"/>
</mask>
<path d="M63.6954 33.8658L62.7003 33.9645C62.751 34.476 63.1813 34.8658 63.6954 34.8658V33.8658ZM35.5171 21.8807L35.8864 22.8101L35.8973 22.8056L35.5171 21.8807ZM29.5512 26.1953L28.7512 25.5953L28.7438 25.6053L29.5512 26.1953ZM27.5271 32.4808L28.5264 32.5172C28.5269 32.5051 28.5271 32.493 28.5271 32.4808H27.5271ZM28.7522 37.5945L27.8984 38.1151C27.9015 38.1201 27.9046 38.1251 27.9077 38.13L28.7522 37.5945ZM32.5342 41.3764L31.9795 42.2085C31.9838 42.2114 31.9881 42.2142 31.9925 42.217L32.5342 41.3764ZM38.074 44.093L37.7246 45.03C37.7292 45.0318 37.7339 45.0335 37.7386 45.0351L38.074 44.093ZM44.7856 46.0107L45.0182 45.0381C45.0135 45.037 45.0088 45.0359 45.0041 45.0348L44.7856 46.0107ZM54.5867 48.3544L54.3542 49.327C54.3589 49.3281 54.3636 49.3292 54.3683 49.3303L54.5867 48.3544ZM67.6904 52.6158L67.2828 53.5289V53.5289L67.6904 52.6158ZM78.0242 59.1676L78.6892 58.4207V58.4207L78.0242 59.1676ZM84.7892 68.3296L83.8788 68.7434L83.8823 68.7509L84.7892 68.3296ZM87.2927 80.4212L88.2928 80.4265L88.2927 80.4134L87.2927 80.4212ZM82.1791 97.7862L81.3554 97.2192L81.3545 97.2205L82.1791 97.7862ZM67.6904 109.132L68.0806 110.053L68.0831 110.052L67.6904 109.132ZM21.934 109.079L21.5505 110.002L21.5523 110.003L21.934 109.079ZM6.69966 97.0938L5.87271 97.6561L5.87707 97.6624L6.69966 97.0938ZM1.00009 77.3317V76.3317C0.730951 76.3317 0.473175 76.4402 0.28503 76.6326C0.0968852 76.8251 -0.00574303 77.0852 0.000344276 77.3543L1.00009 77.3317ZM23.319 77.3317L24.3167 77.2639C24.281 76.7391 23.8449 76.3317 23.319 76.3317V77.3317ZM26.4617 86.4936L25.6631 87.0955C25.6664 87.0998 25.6697 87.1041 25.673 87.1084L26.4617 86.4936ZM33.9724 91.9801L33.6028 92.9094L33.6155 92.9143L33.9724 91.9801ZM54.8531 92.0867L54.4895 91.1551L54.4856 91.1566L54.8531 92.0867ZM61.618 87.3459L62.4029 87.9655V87.9655L61.618 87.3459ZM61.8311 74.1889L61.0695 74.8371L61.0775 74.8463L61.8311 74.1889ZM55.5455 69.9276L55.1516 70.8467L55.1559 70.8485L55.5455 69.9276ZM45.4781 66.7315L45.2345 67.7015L45.2437 67.7037L45.4781 66.7315ZM33.5995 63.7486L33.8431 62.7787L33.8359 62.7769L33.5995 63.7486ZM11.8133 53.255L11.1471 54.0007V54.0007L11.8133 53.255ZM3.87651 34.0256L4.87655 34.03L4.8765 34.0202L3.87651 34.0256ZM9.14995 16.7138L8.34095 16.126L8.33819 16.1298L9.14995 16.7138ZM66.412 5.15484L65.995 6.06374L65.997 6.06466L66.412 5.15484ZM80.5811 16.7138L79.7555 17.278V17.2781L80.5811 16.7138ZM85.8012 33.8658V34.8658C86.0693 34.8658 86.3261 34.7582 86.5141 34.5671C86.7021 34.376 86.8055 34.1174 86.8011 33.8494L85.8012 33.8658ZM63.6954 33.8658L64.6905 33.7671C64.2388 29.2124 62.2802 25.6073 58.8018 23.0463L58.2089 23.8516L57.616 24.6568C60.6006 26.8543 62.2997 29.9254 62.7003 33.9645L63.6954 33.8658ZM58.2089 23.8516L58.8018 23.0463C55.3439 20.5004 50.7256 19.2827 45.0519 19.2827V20.2827V21.2827C50.4578 21.2827 54.6108 22.4442 57.616 24.6568L58.2089 23.8516ZM45.0519 20.2827V19.2827C41.1995 19.2827 37.8836 19.827 35.137 20.9557L35.5171 21.8807L35.8973 22.8056C38.3353 21.8037 41.376 21.2827 45.0519 21.2827V20.2827ZM35.5171 21.8807L35.1479 20.9513C32.4202 22.0349 30.2677 23.5733 28.7512 25.5953L29.5512 26.1953L30.3512 26.7953C31.6046 25.1242 33.4294 23.7861 35.8863 22.81L35.5171 21.8807ZM29.5512 26.1953L28.7438 25.6053C27.266 27.6277 26.5271 29.9306 26.5271 32.4808H27.5271H28.5271C28.5271 30.3436 29.1376 28.4562 30.3586 26.7853L29.5512 26.1953ZM27.5271 32.4808L26.5277 32.4445C26.4507 34.5641 26.8943 36.4683 27.8984 38.1151L28.7522 37.5945L29.606 37.0739C28.8346 35.8088 28.4614 34.3038 28.5264 32.5172L27.5271 32.4808ZM28.7522 37.5945L27.9077 38.13C28.9139 39.7168 30.2785 41.0745 31.9795 42.2085L32.5342 41.3764L33.0889 40.5444C31.5938 39.5477 30.4371 38.3841 29.5967 37.0589L28.7522 37.5945ZM32.5342 41.3764L31.9925 42.217C33.6604 43.2919 35.5735 44.2279 37.7246 45.03L38.074 44.093L38.4233 43.1561C36.3841 42.3957 34.604 41.5206 33.0759 40.5359L32.5342 41.3764ZM38.074 44.093L37.7386 45.0351C39.8755 45.7957 42.152 46.4458 44.5671 46.9865L44.7856 46.0107L45.0041 45.0348C42.6607 44.5102 40.4628 43.8819 38.4093 43.1509L38.074 44.093ZM44.7856 46.0107L44.553 46.9832L54.3542 49.327L54.5867 48.3544L54.8193 47.3818L45.0182 45.0381L44.7856 46.0107ZM54.5867 48.3544L54.3683 49.3303C59.0694 50.3827 63.373 51.7835 67.2828 53.5289L67.6904 52.6158L68.0981 51.7026C64.0533 49.8969 59.6211 48.4568 54.8052 47.3786L54.5867 48.3544ZM67.6904 52.6158L67.2828 53.5289C71.1771 55.2675 74.5325 57.398 77.3593 59.9145L78.0242 59.1676L78.6892 58.4207C75.6921 55.7526 72.1583 53.5152 68.0981 51.7026L67.6904 52.6158ZM78.0242 59.1676L77.3593 59.9145C80.1681 62.4151 82.339 65.3559 83.8788 68.7434L84.7892 68.3296L85.6995 67.9158C84.0432 64.272 81.7042 61.1048 78.6892 58.4207L78.0242 59.1676ZM84.7892 68.3296L83.8823 68.7509C85.4461 72.1165 86.2581 76.002 86.2927 80.429L87.2927 80.4212L88.2927 80.4134C88.2562 75.7494 87.3993 71.5739 85.696 67.9082L84.7892 68.3296ZM87.2927 80.4212L86.2927 80.4159C86.2581 86.9167 84.6015 92.5037 81.3554 97.2192L82.1791 97.7862L83.0028 98.3533C86.5038 93.2676 88.2562 87.2779 88.2927 80.4265L87.2927 80.4212ZM82.1791 97.7862L81.3545 97.2205C78.1406 101.905 73.4735 105.576 67.2978 108.212L67.6904 109.132L68.0831 110.052C74.5494 107.291 79.5414 103.398 83.0036 98.352L82.1791 97.7862ZM67.6904 109.132L67.3003 108.211C61.1693 110.809 53.7276 112.127 44.9454 112.127V113.127V114.127C53.9188 114.127 61.6406 112.782 68.0806 110.053L67.6904 109.132ZM44.9454 113.127V112.127C36.2385 112.127 28.703 110.793 22.3158 108.155L21.934 109.079L21.5523 110.003C28.2332 112.763 36.0387 114.127 44.9454 114.127V113.127ZM21.934 109.079L22.3176 108.155C15.9791 105.523 11.0605 101.644 7.52225 96.5251L6.69966 97.0938L5.87707 97.6624C9.65417 103.126 14.8918 107.237 21.5505 110.002L21.934 109.079ZM6.69966 97.0938L7.52659 96.5314C4.0345 91.396 2.17399 85.0067 1.99983 77.3091L1.00009 77.3317L0.000344276 77.3543C0.181303 85.3527 2.1205 92.1381 5.87274 97.6561L6.69966 97.0938ZM1.00009 77.3317V78.3317H23.319V77.3317V76.3317H1.00009V77.3317ZM23.319 77.3317L22.3213 77.3995C22.5804 81.2125 23.6787 84.4622 25.6631 87.0955L26.4617 86.4936L27.2603 85.8918C25.5516 83.6244 24.5547 80.7662 24.3167 77.2639L23.319 77.3317ZM26.4617 86.4936L25.673 87.1084C27.675 89.6769 30.3294 91.6074 33.6028 92.9093L33.9724 91.9801L34.342 91.0509C31.3654 89.8671 29.0127 88.1399 27.2505 85.8789L26.4617 86.4936ZM33.9724 91.9801L33.6155 92.9143C36.9081 94.1721 40.6008 94.7912 44.6791 94.7912V93.7912V92.7912C40.8028 92.7912 37.3577 92.2029 34.3293 91.046L33.9724 91.9801ZM44.6791 93.7912V94.7912C48.6793 94.7912 52.2008 94.2097 55.2205 93.0167L54.8531 92.0867L54.4856 91.1566C51.7525 92.2364 48.4913 92.7912 44.6791 92.7912V93.7912ZM54.8531 92.0867L55.2166 93.0182C58.2591 91.8309 60.6734 90.1562 62.4029 87.9655L61.618 87.3459L60.8331 86.7262C59.3665 88.5839 57.2709 90.0697 54.4895 91.1551L54.8531 92.0867ZM61.618 87.3459L62.4029 87.9655C64.1431 85.7613 65.015 83.216 65.015 80.3679H64.015H63.015C63.015 82.7755 62.2889 84.8822 60.8331 86.7262L61.618 87.3459ZM64.015 80.3679H65.015C65.015 77.7035 64.2167 75.4025 62.5846 73.5316L61.8311 74.1889L61.0775 74.8463C62.3573 76.3134 63.015 78.1317 63.015 80.3679H64.015ZM61.8311 74.1889L62.5926 73.5408C61.0407 71.7173 58.798 70.2178 55.9352 69.0066L55.5455 69.9276L55.1559 70.8485C57.8328 71.9811 59.7805 73.3224 61.0695 74.8371L61.8311 74.1889ZM55.5455 69.9276L55.9395 69.0084C53.1384 67.808 49.7256 66.7269 45.7124 65.7594L45.4781 66.7315L45.2437 67.7037C49.1851 68.6539 52.484 69.7034 55.1516 70.8467L55.5455 69.9276ZM45.4781 66.7315L45.7216 65.7617L33.8431 62.7787L33.5995 63.7486L33.356 64.7185L45.2345 67.7014L45.4781 66.7315ZM33.5995 63.7486L33.8359 62.7769C24.7481 60.5664 17.6503 57.1285 12.4795 52.5092L11.8133 53.255L11.1471 54.0007C16.6297 58.8985 24.056 62.4564 33.3632 64.7203L33.5995 63.7486ZM11.8133 53.255L12.4795 52.5092C7.39508 47.9671 4.84207 41.8457 4.8765 34.03L3.87651 34.0256L2.87652 34.0212C2.83993 42.3276 5.57811 49.0258 11.1471 54.0007L11.8133 53.255ZM3.87651 34.0256L4.8765 34.0202C4.84202 27.6073 6.54482 22.0473 9.9617 17.2978L9.14995 16.7138L8.33819 16.1298C4.6528 21.2525 2.83998 27.2337 2.87652 34.031L3.87651 34.0256ZM9.14995 16.7138L9.95893 17.3016C13.43 12.5246 18.2013 8.7764 24.3101 6.06908L23.9049 5.15484L23.4997 4.2406C17.1086 7.07305 12.0432 11.0309 8.34096 16.126L9.14995 16.7138ZM23.9049 5.15484L24.3101 6.06908C30.4133 3.36424 37.3741 2.00001 45.2117 2.00001V1.00001V7.62939e-06C37.1403 7.62939e-06 29.8965 1.40566 23.4997 4.2406L23.9049 5.15484ZM45.2117 1.00001V2.00001C53.1953 2.00001 60.1143 3.36554 65.995 6.06374L66.412 5.15484L66.829 4.24594C60.6359 1.40437 53.4214 7.62939e-06 45.2117 7.62939e-06V1.00001ZM66.412 5.15484L65.997 6.06466C71.9235 8.76795 76.4963 12.5094 79.7555 17.278L80.5811 16.7138L81.4067 16.1495C77.9186 11.046 73.0455 7.0815 66.827 4.24502L66.412 5.15484ZM80.5811 16.7138L79.7555 17.2781C83.0089 22.0384 84.6977 27.5615 84.8014 33.8822L85.8012 33.8658L86.8011 33.8494C86.6916 27.1729 84.9003 21.2613 81.4067 16.1495L80.5811 16.7138ZM85.8012 33.8658V32.8658H63.6954V33.8658V34.8658H85.8012V33.8658ZM102.807 111.582H101.807C101.807 112.135 102.254 112.582 102.807 112.582V111.582ZM102.807 2.49149V1.49149C102.254 1.49149 101.807 1.9392 101.807 2.49149H102.807ZM125.871 2.49149H126.871C126.871 1.9392 126.424 1.49149 125.871 1.49149V2.49149ZM125.871 47.5021H124.871C124.871 48.0544 125.319 48.5021 125.871 48.5021V47.5021ZM172.693 47.5021V48.5021C173.245 48.5021 173.693 48.0544 173.693 47.5021H172.693ZM172.693 2.49149V1.49149C172.141 1.49149 171.693 1.9392 171.693 2.49149H172.693ZM195.704 2.49149H196.704C196.704 1.9392 196.257 1.49149 195.704 1.49149V2.49149ZM195.704 111.582V112.582C196.257 112.582 196.704 112.135 196.704 111.582H195.704ZM172.693 111.582H171.693C171.693 112.135 172.141 112.582 172.693 112.582V111.582ZM172.693 66.5185H173.693C173.693 65.9662 173.245 65.5185 172.693 65.5185V66.5185ZM125.871 66.5185V65.5185C125.319 65.5185 124.871 65.9662 124.871 66.5185H125.871ZM125.871 111.582V112.582C126.424 112.582 126.871 112.135 126.871 111.582H125.871ZM102.807 111.582H103.807V2.49149H102.807H101.807V111.582H102.807ZM102.807 2.49149V3.49149H125.871V2.49149V1.49149H102.807V2.49149ZM125.871 2.49149H124.871V47.5021H125.871H126.871V2.49149H125.871ZM125.871 47.5021V48.5021H172.693V47.5021V46.5021H125.871V47.5021ZM172.693 47.5021H173.693V2.49149H172.693H171.693V47.5021H172.693ZM172.693 2.49149V3.49149H195.704V2.49149V1.49149H172.693V2.49149ZM195.704 2.49149H194.704V111.582H195.704H196.704V2.49149H195.704ZM195.704 111.582V110.582H172.693V111.582V112.582H195.704V111.582ZM172.693 111.582H173.693V66.5185H172.693H171.693V111.582H172.693ZM172.693 66.5185V65.5185H125.871V66.5185V67.5185H172.693V66.5185ZM125.871 66.5185H124.871V111.582H125.871H126.871V66.5185H125.871ZM125.871 111.582V110.582H102.807V111.582V112.582H125.871V111.582ZM237.785 2.49149H238.785C238.785 1.9392 238.338 1.49149 237.785 1.49149V2.49149ZM237.785 111.582V112.582C238.338 112.582 238.785 112.135 238.785 111.582H237.785ZM214.721 111.582H213.721C213.721 112.135 214.169 112.582 214.721 112.582V111.582ZM214.721 2.49149V1.49149C214.169 1.49149 213.721 1.9392 213.721 2.49149H214.721ZM237.785 2.49149H236.785V111.582H237.785H238.785V2.49149H237.785ZM237.785 111.582V110.582H214.721V111.582V112.582H237.785V111.582ZM214.721 111.582H215.721V2.49149H214.721H213.721V111.582H214.721ZM214.721 2.49149V3.49149H237.785V2.49149V1.49149H214.721V2.49149ZM348.008 2.49149H349.008C349.008 1.9392 348.561 1.49149 348.008 1.49149V2.49149ZM348.008 111.582V112.582C348.561 112.582 349.008 112.135 349.008 111.582H348.008ZM328.086 111.582L327.264 112.151C327.451 112.421 327.758 112.582 328.086 112.582V111.582ZM280.625 42.9212L281.448 42.3526C281.261 42.0824 280.954 41.9212 280.625 41.9212V42.9212ZM279.826 42.9212V41.9212C279.274 41.9212 278.826 42.3689 278.826 42.9212H279.826ZM279.826 111.582V112.582C280.379 112.582 280.826 112.135 280.826 111.582H279.826ZM256.762 111.582H255.762C255.762 112.135 256.21 112.582 256.762 112.582V111.582ZM256.762 2.49149V1.49149C256.21 1.49149 255.762 1.9392 255.762 2.49149H256.762ZM277.003 2.49149L277.828 1.92561C277.641 1.65388 277.333 1.49149 277.003 1.49149V2.49149ZM324.091 71.0994L323.267 71.6653C323.453 71.937 323.762 72.0994 324.091 72.0994V71.0994ZM325.05 71.0994V72.0994C325.602 72.0994 326.05 71.6517 326.05 71.0994H325.05ZM325.05 2.49149V1.49149C324.498 1.49149 324.05 1.9392 324.05 2.49149H325.05ZM348.008 2.49149H347.008V111.582H348.008H349.008V2.49149H348.008ZM348.008 111.582V110.582H328.086V111.582V112.582H348.008V111.582ZM328.086 111.582L328.909 111.014L281.448 42.3526L280.625 42.9212L279.803 43.4898L327.264 112.151L328.086 111.582ZM280.625 42.9212V41.9212H279.826V42.9212V43.9212H280.625V42.9212ZM279.826 42.9212H278.826V111.582H279.826H280.826V42.9212H279.826ZM279.826 111.582V110.582H256.762V111.582V112.582H279.826V111.582ZM256.762 111.582H257.762V2.49149H256.762H255.762V111.582H256.762ZM256.762 2.49149V3.49149H277.003V2.49149V1.49149H256.762V2.49149ZM277.003 2.49149L276.179 3.05737L323.267 71.6653L324.091 71.0994L324.916 70.5336L277.828 1.92561L277.003 2.49149ZM324.091 71.0994V72.0994H325.05V71.0994V70.0994H324.091V71.0994ZM325.05 71.0994H326.05V2.49149H325.05H324.05V71.0994H325.05ZM325.05 2.49149V3.49149H348.008V2.49149V1.49149H325.05V2.49149ZM367.065 111.582H366.065C366.065 112.135 366.512 112.582 367.065 112.582V111.582ZM367.065 2.49149V1.49149C366.512 1.49149 366.065 1.9392 366.065 2.49149H367.065ZM434.394 9.04333L433.911 9.91898L433.914 9.92063L434.394 9.04333ZM452.665 27.7401L451.779 28.2042L451.781 28.2072L452.665 27.7401ZM452.665 86.2273L451.78 85.7617L451.778 85.7647L452.665 86.2273ZM434.288 105.031L433.808 104.153L433.806 104.154L434.288 105.031ZM390.129 91.8203H389.129C389.129 92.3726 389.577 92.8203 390.129 92.8203V91.8203ZM421.983 88.1982L422.444 89.0857L422.446 89.0844L421.983 88.1982ZM432.53 76.8523L431.622 76.4328L431.621 76.4356L432.53 76.8523ZM432.53 37.1683L431.621 37.585L431.623 37.5902L432.53 37.1683ZM422.036 25.8757L422.497 24.9882H422.497L422.036 25.8757ZM390.129 22.2536V21.2536C389.577 21.2536 389.129 21.7013 389.129 22.2536H390.129ZM405.736 111.582V110.582H367.065V111.582V112.582H405.736V111.582ZM367.065 111.582H368.065V2.49149H367.065H366.065V111.582H367.065ZM367.065 2.49149V3.49149H406.056V2.49149V1.49149H367.065V2.49149ZM406.056 2.49149V3.49149C416.896 3.49149 426.168 5.64835 433.911 9.91897L434.394 9.04333L434.877 8.1677C426.782 3.70251 417.162 1.49149 406.056 1.49149V2.49149ZM434.394 9.04333L433.914 9.92063C441.657 14.1566 447.607 20.2437 451.779 28.2042L452.665 27.7401L453.55 27.2759C449.199 18.9723 442.969 12.5948 434.874 8.16604L434.394 9.04333ZM452.665 27.7401L451.781 28.2072C455.986 36.1657 458.11 45.7279 458.11 56.9304H459.11H460.11C460.11 45.4766 457.937 35.5786 453.549 27.2729L452.665 27.7401ZM459.11 56.9304H458.11C458.11 68.1688 455.986 77.7672 451.78 85.7617L452.665 86.2273L453.55 86.6929C457.938 78.3522 460.11 68.4193 460.11 56.9304H459.11ZM452.665 86.2273L451.778 85.7647C447.607 93.759 441.622 99.8813 433.808 104.153L434.288 105.031L434.767 105.908C442.933 101.444 449.199 95.0308 453.551 86.6898L452.665 86.2273ZM434.288 105.031L433.806 104.154C426.028 108.425 416.685 110.582 405.736 110.582V111.582V112.582C416.947 112.582 426.638 110.372 434.769 105.907L434.288 105.031ZM390.129 91.8203V92.8203H404.778V91.8203V90.8203H390.129V91.8203ZM404.778 91.8203V92.8203C411.71 92.8203 417.613 91.5932 422.444 89.0857L421.983 88.1982L421.522 87.3106C417.049 89.6327 411.482 90.8203 404.778 90.8203V91.8203ZM421.983 88.1982L422.446 89.0844C427.343 86.5246 431.009 82.5705 433.439 77.2689L432.53 76.8523L431.621 76.4356C429.363 81.3613 425.998 84.9712 421.52 87.3119L421.983 88.1982ZM432.53 76.8523L433.438 77.2717C435.898 71.9469 437.099 65.1492 437.099 56.9304H436.099H435.099C435.099 64.9759 433.92 71.4594 431.622 76.4328L432.53 76.8523ZM436.099 56.9304H437.099C437.099 48.7816 435.898 42.0364 433.436 36.7465L432.53 37.1683L431.623 37.5902C433.92 42.5276 435.099 48.957 435.099 56.9304H436.099ZM432.53 37.1683L433.439 36.7517C431.009 31.4514 427.361 27.5133 422.497 24.9882L422.036 25.8757L421.575 26.7633C426.015 29.0677 429.362 32.658 431.621 37.585L432.53 37.1683ZM422.036 25.8757L422.497 24.9882C417.666 22.4807 411.763 21.2536 404.831 21.2536V22.2536V23.2536C411.535 23.2536 417.102 24.4412 421.575 26.7633L422.036 25.8757ZM404.831 22.2536V21.2536H390.129V22.2536V23.2536H404.831V22.2536ZM390.129 22.2536H389.129V91.8203H390.129H391.129V22.2536H390.129ZM569.679 87.3992L568.799 86.9237L568.798 86.9266L569.679 87.3992ZM551.355 106.522L551.848 107.392L551.85 107.391L551.355 106.522ZM499.26 106.469L499.756 105.601L499.26 106.469ZM480.989 87.3459L480.108 87.8184V87.8184L480.989 87.3459ZM480.989 26.6747L481.871 27.1473V27.1473L480.989 26.6747ZM499.26 7.60513L499.753 8.4751L499.756 8.47337L499.26 7.60513ZM551.355 7.60513L550.859 8.47338L550.864 8.47606L551.355 7.60513ZM569.679 26.6747L568.798 27.1473L568.799 27.1502L569.679 26.6747ZM549.597 37.5412L548.679 37.9359L548.681 37.9411L549.597 37.5412ZM539.956 25.5029L539.406 26.3382V26.3382L539.956 25.5029ZM510.766 25.5029L511.315 26.3382V26.3382L510.766 25.5029ZM501.071 37.5412L500.155 37.1413L500.152 37.1465L501.071 37.5412ZM501.071 76.5327L500.152 76.9274L500.155 76.9325L501.071 76.5327ZM510.766 88.571L511.315 87.7357V87.7357L510.766 88.571ZM539.956 88.571L539.406 87.7357V87.7357L539.956 88.571ZM549.597 76.5327L548.681 76.1328L548.679 76.138L549.597 76.5327ZM576.444 57.0369H575.444C575.444 68.8087 573.213 78.7571 568.799 86.9237L569.679 87.3992L570.559 87.8746C575.165 79.3508 577.444 69.0578 577.444 57.0369H576.444ZM569.679 87.3992L568.798 86.9266C564.406 95.1167 558.428 101.349 550.861 105.653L551.355 106.522L551.85 107.391C559.765 102.889 566.003 96.3719 570.56 87.8717L569.679 87.3992ZM551.355 106.522L550.862 105.652C543.319 109.927 534.827 112.074 525.361 112.074V113.074V114.074C535.142 114.074 543.979 111.852 551.848 107.392L551.355 106.522ZM525.361 113.074V112.074C515.824 112.074 507.297 109.91 499.756 105.601L499.26 106.469L498.764 107.337C506.635 111.835 515.509 114.074 525.361 114.074V113.074ZM499.26 106.469L499.756 105.601C492.224 101.297 486.263 95.0646 481.871 86.8734L480.989 87.3459L480.108 87.8184C484.665 96.3175 490.884 102.834 498.764 107.337L499.26 106.469ZM480.989 87.3459L481.871 86.8734C477.491 78.7057 475.278 68.7737 475.278 57.0369H474.278H473.278C473.278 69.0218 475.539 79.2957 480.108 87.8184L480.989 87.3459ZM474.278 57.0369H475.278C475.278 45.2641 477.492 35.3145 481.871 27.1473L480.989 26.6747L480.108 26.2022C475.538 34.7253 473.278 45.0172 473.278 57.0369H474.278ZM480.989 26.6747L481.871 27.1473C486.262 18.9566 492.223 12.7433 499.753 8.47509L499.26 7.60513L498.767 6.73516C490.885 11.2027 484.665 17.7025 480.108 26.2022L480.989 26.6747ZM499.26 7.60513L499.756 8.47337C507.297 4.16414 515.824 2.00001 525.361 2.00001V1.00001V7.62939e-06C515.509 7.62939e-06 506.635 2.23929 498.764 6.73689L499.26 7.60513ZM525.361 1.00001V2.00001C534.826 2.00001 543.317 4.1635 550.859 8.47337L551.355 7.60513L551.851 6.73689C543.982 2.23993 535.143 7.62939e-06 525.361 7.62939e-06V1.00001ZM551.355 7.60513L550.864 8.47606C558.429 12.7446 564.407 18.9578 568.798 27.1473L569.679 26.6747L570.56 26.2022C566.003 17.7013 559.764 11.2014 551.847 6.73419L551.355 7.60513ZM569.679 26.6747L568.799 27.1502C573.213 35.3167 575.444 45.2652 575.444 57.0369H576.444H577.444C577.444 45.016 575.165 34.723 570.559 26.1993L569.679 26.6747ZM553.06 57.0369H554.06C554.06 49.237 552.892 42.5933 550.514 37.1413L549.597 37.5412L548.681 37.9411C550.919 43.0715 552.06 49.4249 552.06 57.0369H553.06ZM549.597 37.5412L550.516 37.1465C548.179 31.7046 544.849 27.5257 540.506 24.6675L539.956 25.5029L539.406 26.3382C543.373 28.9488 546.471 32.7954 548.679 37.9359L549.597 37.5412ZM539.956 25.5029L540.506 24.6675C536.168 21.813 531.107 20.4013 525.361 20.4013V21.4013V22.4013C530.765 22.4013 535.434 23.7239 539.406 26.3382L539.956 25.5029ZM525.361 21.4013V20.4013C519.615 20.4013 514.553 21.813 510.216 24.6675L510.766 25.5029L511.315 26.3382C515.288 23.7239 519.957 22.4013 525.361 22.4013V21.4013ZM510.766 25.5029L510.216 24.6675C505.875 27.5247 502.528 31.7017 500.155 37.1413L501.071 37.5412L501.988 37.9411C504.231 32.7983 507.347 28.9498 511.315 26.3382L510.766 25.5029ZM501.071 37.5412L500.152 37.1465C497.811 42.5969 496.662 49.2387 496.662 57.0369H497.662H498.662C498.662 49.4233 499.786 43.0679 501.99 37.9359L501.071 37.5412ZM497.662 57.0369H496.662C496.662 64.8352 497.811 71.477 500.152 76.9273L501.071 76.5327L501.99 76.138C499.786 71.006 498.662 64.6506 498.662 57.0369H497.662ZM501.071 76.5327L500.155 76.9325C502.528 82.3722 505.875 86.5492 510.216 89.4064L510.766 88.571L511.315 87.7357C507.347 85.1241 504.231 81.2756 501.988 76.1328L501.071 76.5327ZM510.766 88.571L510.216 89.4064C514.553 92.2608 519.615 93.6726 525.361 93.6726V92.6726V91.6726C519.957 91.6726 515.288 90.35 511.315 87.7357L510.766 88.571ZM525.361 92.6726V93.6726C531.107 93.6726 536.168 92.2608 540.506 89.4064L539.956 88.571L539.406 87.7357C535.434 90.35 530.765 91.6726 525.361 91.6726V92.6726ZM539.956 88.571L540.506 89.4064C544.849 86.5482 548.179 82.3693 550.516 76.9273L549.597 76.5327L548.679 76.138C546.471 81.2785 543.373 85.1251 539.406 87.7357L539.956 88.571ZM549.597 76.5327L550.514 76.9325C552.892 71.4806 554.06 64.8369 554.06 57.0369H553.06H552.06C552.06 64.649 550.919 71.0024 548.681 76.1328L549.597 76.5327ZM684.776 2.49149H685.776C685.776 1.9392 685.328 1.49149 684.776 1.49149V2.49149ZM684.776 111.582V112.582C685.328 112.582 685.776 112.135 685.776 111.582H684.776ZM664.854 111.582L664.031 112.151C664.218 112.421 664.526 112.582 664.854 112.582V111.582ZM617.393 42.9212L618.216 42.3526C618.029 42.0824 617.721 41.9212 617.393 41.9212V42.9212ZM616.594 42.9212V41.9212C616.042 41.9212 615.594 42.3689 615.594 42.9212H616.594ZM616.594 111.582V112.582C617.146 112.582 617.594 112.135 617.594 111.582H616.594ZM593.529 111.582H592.529C592.529 112.135 592.977 112.582 593.529 112.582V111.582ZM593.529 2.49149V1.49149C592.977 1.49149 592.529 1.9392 592.529 2.49149H593.529ZM613.771 2.49149L614.595 1.92561C614.409 1.65388 614.1 1.49149 613.771 1.49149V2.49149ZM660.859 71.0994L660.034 71.6653C660.221 71.937 660.529 72.0994 660.859 72.0994V71.0994ZM661.818 71.0994V72.0994C662.37 72.0994 662.818 71.6517 662.818 71.0994H661.818ZM661.818 2.49149V1.49149C661.265 1.49149 660.818 1.9392 660.818 2.49149H661.818ZM684.776 2.49149H683.776V111.582H684.776H685.776V2.49149H684.776ZM684.776 111.582V110.582H664.854V111.582V112.582H684.776V111.582ZM664.854 111.582L665.677 111.014L618.216 42.3526L617.393 42.9212L616.57 43.4898L664.031 112.151L664.854 111.582ZM617.393 42.9212V41.9212H616.594V42.9212V43.9212H617.393V42.9212ZM616.594 42.9212H615.594V111.582H616.594H617.594V42.9212H616.594ZM616.594 111.582V110.582H593.529V111.582V112.582H616.594V111.582ZM593.529 111.582H594.529V2.49149H593.529H592.529V111.582H593.529ZM593.529 2.49149V3.49149H613.771V2.49149V1.49149H593.529V2.49149ZM613.771 2.49149L612.946 3.05737L660.034 71.6653L660.859 71.0994L661.683 70.5336L614.595 1.92561L613.771 2.49149ZM660.859 71.0994V72.0994H661.818V71.0994V70.0994H660.859V71.0994ZM661.818 71.0994H662.818V2.49149H661.818H660.818V71.0994H661.818ZM661.818 2.49149V3.49149H684.776V2.49149V1.49149H661.818V2.49149ZM776.169 37.7543L775.208 38.0307C775.331 38.4592 775.723 38.7543 776.169 38.7543V37.7543ZM773.026 30.8828L772.194 31.4375L772.199 31.4443L773.026 30.8828ZM768.072 25.7692L767.477 26.5727C767.482 26.5769 767.488 26.5809 767.494 26.5849L768.072 25.7692ZM761.467 22.5199L761.176 23.4766L761.18 23.4777L761.467 22.5199ZM738.615 25.5561L738.067 24.7198L738.064 24.7219L738.615 25.5561ZM728.814 37.6477L729.728 38.055L729.729 38.0527L728.814 37.6477ZM738.562 88.5178L738.009 89.3509L738.014 89.3541L738.562 88.5178ZM766.9 89.9027L767.348 90.7971L767.351 90.7954L766.9 89.9027ZM775.423 81.9659L774.559 81.462L774.555 81.4688L775.423 81.9659ZM778.406 69.8743L778.552 68.885C778.265 68.8425 777.973 68.9273 777.753 69.1173C777.532 69.3072 777.406 69.5836 777.406 69.8743H778.406ZM783.094 70.5668V71.5668C783.617 71.5668 784.052 71.1625 784.091 70.64C784.129 70.1176 783.758 69.6541 783.24 69.5775L783.094 70.5668ZM754.969 70.5668H753.969C753.969 71.1191 754.416 71.5668 754.969 71.5668V70.5668ZM754.969 53.2017V52.2017C754.416 52.2017 753.969 52.6494 753.969 53.2017H754.969ZM800.618 53.2017H801.618C801.618 52.6494 801.171 52.2017 800.618 52.2017V53.2017ZM794.546 91.6605L795.407 92.1691L795.408 92.1672L794.546 91.6605ZM777.82 107.534L778.281 108.421L778.285 108.419L777.82 107.534ZM726.471 106.309L725.964 107.171L725.967 107.173L726.471 106.309ZM708.36 86.973L707.47 87.4293L707.472 87.4338L708.36 86.973ZM705.75 33.4929L704.813 33.1439L704.812 33.1465L705.75 33.4929ZM716.616 15.8083L717.336 16.502V16.502L716.616 15.8083ZM732.863 4.78197L732.485 3.85608V3.85608L732.863 4.78197ZM770.203 3.71663L769.881 4.66342L769.887 4.66531L770.203 3.71663ZM784.372 11.2805L783.75 12.064L783.754 12.0666L784.372 11.2805ZM794.546 22.946L793.682 23.4495L793.684 23.4525L794.546 22.946ZM799.606 37.7543V38.7543C799.895 38.7543 800.17 38.6292 800.36 38.4112C800.55 38.1933 800.636 37.9038 800.597 37.6174L799.606 37.7543ZM776.169 37.7543L777.13 37.4778C776.358 34.7963 775.269 32.4073 773.854 30.3213L773.026 30.8828L772.199 31.4443C773.482 33.3356 774.488 35.5276 775.208 38.0307L776.169 37.7543ZM773.026 30.8828L773.858 30.3281C772.442 28.2038 770.705 26.4103 768.651 24.9535L768.072 25.7692L767.494 26.5849C769.345 27.8979 770.911 29.5135 772.194 31.4375L773.026 30.8828ZM768.072 25.7692L768.667 24.9656C766.649 23.4706 764.341 22.3381 761.754 21.5621L761.467 22.5199L761.18 23.4777C763.564 24.1931 765.66 25.2269 767.477 26.5727L768.072 25.7692ZM761.467 22.5199L761.758 21.5632C759.2 20.7845 756.383 20.4013 753.317 20.4013V21.4013V22.4013C756.217 22.4013 758.834 22.7638 761.176 23.4766L761.467 22.5199ZM753.317 21.4013V20.4013C747.568 20.4013 742.473 21.8322 738.067 24.7198L738.615 25.5561L739.164 26.3925C743.21 23.7403 747.916 22.4013 753.317 22.4013V21.4013ZM738.615 25.5561L738.064 24.7219C733.691 27.6125 730.309 31.8039 727.9 37.2427L728.814 37.6477L729.729 38.0527C732.007 32.9091 735.159 29.0395 739.167 26.3903L738.615 25.5561ZM728.814 37.6477L727.901 37.2404C725.485 42.6584 724.299 49.2335 724.299 56.9304H725.299H726.299C726.299 49.4285 727.456 43.1485 729.728 38.055L728.814 37.6477ZM725.299 56.9304H724.299C724.299 64.6263 725.467 71.2327 727.844 76.7172L728.761 76.3196L729.679 75.922C727.439 70.7531 726.299 64.4334 726.299 56.9304H725.299ZM728.761 76.3196L727.844 76.7172C730.217 82.195 733.6 86.4238 738.009 89.3509L738.562 88.5178L739.115 87.6846C735.073 85.001 731.921 81.0977 729.679 75.922L728.761 76.3196ZM738.562 88.5178L738.014 89.3541C742.425 92.245 747.61 93.6726 753.53 93.6726V92.6726V91.6726C747.944 91.6726 743.152 90.3303 739.11 87.6814L738.562 88.5178ZM753.53 92.6726V93.6726C758.866 93.6726 763.484 92.729 767.348 90.7971L766.9 89.9027L766.453 89.0083C762.931 90.7696 758.635 91.6726 753.53 91.6726V92.6726ZM766.9 89.9027L767.351 90.7954C771.243 88.831 774.234 86.0529 776.291 82.463L775.423 81.9659L774.555 81.4688C772.706 84.6971 770.015 87.2103 766.45 89.01L766.9 89.9027ZM775.423 81.9659L776.287 82.4698C778.379 78.8824 779.406 74.6715 779.406 69.8743H778.406H777.406C777.406 74.3811 776.444 78.2313 774.559 81.4621L775.423 81.9659ZM778.406 69.8743L778.26 70.8636L782.947 71.556L783.094 70.5668L783.24 69.5775L778.552 68.885L778.406 69.8743ZM783.094 70.5668V69.5668H754.969V70.5668V71.5668H783.094V70.5668ZM754.969 70.5668H755.969V53.2017H754.969H753.969V70.5668H754.969ZM754.969 53.2017V54.2017H800.618V53.2017V52.2017H754.969V53.2017ZM800.618 53.2017H799.618V66.9446H800.618H801.618V53.2017H800.618ZM800.618 66.9446H799.618C799.618 76.3902 797.625 84.4464 793.684 91.1539L794.546 91.6605L795.408 92.1672C799.563 85.0963 801.618 76.6751 801.618 66.9446H800.618ZM794.546 91.6605L793.685 91.1519C789.732 97.8444 784.294 103.006 777.355 106.649L777.82 107.534L778.285 108.419C785.55 104.605 791.263 99.1841 795.407 92.1691L794.546 91.6605ZM777.82 107.534L777.359 106.647C770.418 110.256 762.448 112.074 753.424 112.074V113.074V114.074C762.723 114.074 771.017 112.199 778.281 108.421L777.82 107.534ZM753.424 113.074V112.074C743.348 112.074 734.542 109.854 726.974 105.445L726.471 106.309L725.967 107.173C733.882 111.784 743.045 114.074 753.424 114.074V113.074ZM726.471 106.309L726.977 105.447C719.406 101.001 713.497 94.6987 709.247 86.5123L708.36 86.973L707.472 87.4338C711.887 95.9377 718.053 102.526 725.964 107.171L726.471 106.309ZM708.36 86.973L709.25 86.5168C705.039 78.3052 702.914 68.5252 702.914 57.1435H701.914H700.914C700.914 68.7731 703.086 78.8795 707.47 87.4293L708.36 86.973ZM701.914 57.1435H702.914C702.914 48.3966 704.179 40.6336 706.688 33.8393L705.75 33.4929L704.812 33.1465C702.207 40.2017 700.914 48.2057 700.914 57.1435H701.914ZM705.75 33.4929L706.687 33.8419C709.236 26.9964 712.789 21.2226 717.336 16.502L716.616 15.8083L715.896 15.1145C711.139 20.053 707.448 26.069 704.813 33.1439L705.75 33.4929ZM716.616 15.8083L717.336 16.502C721.892 11.7723 727.191 8.17623 733.24 5.70786L732.863 4.78197L732.485 3.85608C726.176 6.43031 720.644 10.1851 715.896 15.1145L716.616 15.8083ZM732.863 4.78197L733.24 5.70786C739.29 3.2393 745.855 2.00001 752.944 2.00001V1.00001V7.62939e-06C745.616 7.62939e-06 738.793 1.28202 732.485 3.85608L732.863 4.78197ZM752.944 1.00001V2.00001C759.025 2.00001 764.668 2.89085 769.881 4.6634L770.203 3.71663L770.525 2.76986C765.085 0.920242 759.222 7.62939e-06 752.944 7.62939e-06V1.00001ZM770.203 3.71663L769.887 4.66531C775.11 6.40654 779.729 8.87421 783.75 12.064L784.372 11.2805L784.993 10.497C780.777 7.15279 775.949 4.57785 770.519 2.76794L770.203 3.71663ZM784.372 11.2805L783.754 12.0666C787.811 15.2568 791.118 19.0498 793.682 23.4495L794.546 22.946L795.41 22.4426C792.718 17.8224 789.243 13.8384 784.99 10.4945L784.372 11.2805ZM794.546 22.946L793.684 23.4525C796.241 27.8077 797.887 32.6172 798.616 37.8911L799.606 37.7543L800.597 37.6174C799.834 32.0959 798.106 27.0332 795.408 22.4396L794.546 22.946ZM799.606 37.7543V36.7543H776.169V37.7543V38.7543H799.606V37.7543ZM842.5 111.582L841.538 111.857C841.661 112.287 842.053 112.582 842.5 112.582V111.582ZM811.285 2.49149V1.49149C810.971 1.49149 810.676 1.63884 810.487 1.88944C810.298 2.14005 810.237 2.46483 810.324 2.76658L811.285 2.49149ZM836.48 2.49149L837.453 2.25974C837.346 1.80933 836.943 1.49149 836.48 1.49149V2.49149ZM854.538 78.2905L853.565 78.5222C853.672 78.9726 854.075 79.2905 854.538 79.2905V78.2905ZM855.443 78.2905V79.2905C855.898 79.2905 856.295 78.9841 856.411 78.5447L855.443 78.2905ZM875.365 2.49149V1.49149C874.911 1.49149 874.514 1.79783 874.398 2.23729L875.365 2.49149ZM896.938 2.49149L897.906 2.23843C897.791 1.79841 897.393 1.49149 896.938 1.49149V2.49149ZM916.807 78.4503L915.84 78.7034C915.955 79.1434 916.352 79.4503 916.807 79.4503V78.4503ZM917.766 78.4503V79.4503C918.229 79.4503 918.632 79.1322 918.739 78.6816L917.766 78.4503ZM935.823 2.49149V1.49149C935.36 1.49149 934.958 1.80957 934.851 2.2602L935.823 2.49149ZM961.019 2.49149L961.98 2.76658C962.067 2.46483 962.006 2.14005 961.817 1.88944C961.628 1.63884 961.333 1.49149 961.019 1.49149V2.49149ZM929.804 111.582V112.582C930.251 112.582 930.643 112.287 930.766 111.857L929.804 111.582ZM907.326 111.582L906.365 111.862C906.49 112.289 906.881 112.582 907.326 112.582V111.582ZM886.551 40.2578L887.512 39.9782C887.387 39.5513 886.996 39.2578 886.551 39.2578V40.2578ZM885.699 40.2578V39.2578C885.254 39.2578 884.863 39.5517 884.739 39.9788L885.699 40.2578ZM864.978 111.582V112.582C865.423 112.582 865.814 112.289 865.939 111.861L864.978 111.582ZM842.5 111.582L843.461 111.307L812.246 2.21639L811.285 2.49149L810.324 2.76658L841.538 111.857L842.5 111.582ZM811.285 2.49149V3.49149H836.48V2.49149V1.49149H811.285V2.49149ZM836.48 2.49149L835.508 2.72323L853.565 78.5222L854.538 78.2905L855.511 78.0587L837.453 2.25974L836.48 2.49149ZM854.538 78.2905V79.2905H855.443V78.2905V77.2905H854.538V78.2905ZM855.443 78.2905L856.411 78.5447L876.332 2.74567L875.365 2.49149L874.398 2.23729L854.476 78.0363L855.443 78.2905ZM875.365 2.49149V3.49149H896.938V2.49149V1.49149H875.365V2.49149ZM896.938 2.49149L895.971 2.74454L915.84 78.7034L916.807 78.4503L917.775 78.1972L897.906 2.23843L896.938 2.49149ZM916.807 78.4503V79.4503H917.766V78.4503V77.4503H916.807V78.4503ZM917.766 78.4503L918.739 78.6816L936.796 2.72277L935.823 2.49149L934.851 2.2602L916.793 78.219L917.766 78.4503ZM935.823 2.49149V3.49149H961.019V2.49149V1.49149H935.823V2.49149ZM961.019 2.49149L960.057 2.21639L928.843 111.307L929.804 111.582L930.766 111.857L961.98 2.76658L961.019 2.49149ZM929.804 111.582V110.582H907.326V111.582V112.582H929.804V111.582ZM907.326 111.582L908.286 111.303L887.512 39.9782L886.551 40.2578L885.591 40.5375L906.365 111.862L907.326 111.582ZM886.551 40.2578V39.2578H885.699V40.2578V41.2578H886.551V40.2578ZM885.699 40.2578L884.739 39.9788L864.018 111.303L864.978 111.582L865.939 111.861L886.659 40.5368L885.699 40.2578ZM864.978 111.582V110.582H842.5V111.582V112.582H864.978V111.582ZM973.363 111.582H972.363C972.363 112.135 972.811 112.582 973.363 112.582V111.582ZM973.363 2.49149V1.49149C972.811 1.49149 972.363 1.9392 972.363 2.49149H973.363ZM996.428 2.49149H997.428C997.428 1.9392 996.98 1.49149 996.428 1.49149V2.49149ZM996.428 47.5021H995.428C995.428 48.0544 995.876 48.5021 996.428 48.5021V47.5021ZM1043.25 47.5021V48.5021C1043.8 48.5021 1044.25 48.0544 1044.25 47.5021H1043.25ZM1043.25 2.49149V1.49149C1042.7 1.49149 1042.25 1.9392 1042.25 2.49149H1043.25ZM1066.26 2.49149H1067.26C1067.26 1.9392 1066.81 1.49149 1066.26 1.49149V2.49149ZM1066.26 111.582V112.582C1066.81 112.582 1067.26 112.135 1067.26 111.582H1066.26ZM1043.25 111.582H1042.25C1042.25 112.135 1042.7 112.582 1043.25 112.582V111.582ZM1043.25 66.5185H1044.25C1044.25 65.9662 1043.8 65.5185 1043.25 65.5185V66.5185ZM996.428 66.5185V65.5185C995.876 65.5185 995.428 65.9662 995.428 66.5185H996.428ZM996.428 111.582V112.582C996.98 112.582 997.428 112.135 997.428 111.582H996.428ZM973.363 111.582H974.363V2.49149H973.363H972.363V111.582H973.363ZM973.363 2.49149V3.49149H996.428V2.49149V1.49149H973.363V2.49149ZM996.428 2.49149H995.428V47.5021H996.428H997.428V2.49149H996.428ZM996.428 47.5021V48.5021H1043.25V47.5021V46.5021H996.428V47.5021ZM1043.25 47.5021H1044.25V2.49149H1043.25H1042.25V47.5021H1043.25ZM1043.25 2.49149V3.49149H1066.26V2.49149V1.49149H1043.25V2.49149ZM1066.26 2.49149H1065.26V111.582H1066.26H1067.26V2.49149H1066.26ZM1066.26 111.582V110.582H1043.25V111.582V112.582H1066.26V111.582ZM1043.25 111.582H1044.25V66.5185H1043.25H1042.25V111.582H1043.25ZM1043.25 66.5185V65.5185H996.428V66.5185V67.5185H1043.25V66.5185ZM996.428 66.5185H995.428V111.582H996.428H997.428V66.5185H996.428ZM996.428 111.582V110.582H973.363V111.582V112.582H996.428V111.582ZM1104.08 111.582V112.582C1104.51 112.582 1104.9 112.304 1105.03 111.892L1104.08 111.582ZM1079.36 111.582L1078.42 111.256C1078.31 111.562 1078.36 111.899 1078.55 112.163C1078.74 112.426 1079.04 112.582 1079.36 112.582V111.582ZM1117.02 2.49149V1.49149C1116.6 1.49149 1116.22 1.762 1116.08 2.16517L1117.02 2.49149ZM1146.75 2.49149L1147.69 2.16558C1147.55 1.7622 1147.17 1.49149 1146.75 1.49149V2.49149ZM1184.35 111.582V112.582C1184.68 112.582 1184.98 112.426 1185.17 112.163C1185.36 111.9 1185.4 111.562 1185.3 111.256L1184.35 111.582ZM1159.64 111.582L1158.69 111.891C1158.82 112.303 1159.2 112.582 1159.64 112.582V111.582ZM1132.31 27.4205L1133.26 27.1116C1133.13 26.6995 1132.75 26.4205 1132.31 26.4205V27.4205ZM1131.46 27.4205V26.4205C1131.03 26.4205 1130.64 26.6993 1130.51 27.1111L1131.46 27.4205ZM1102.54 68.7024V67.7024C1101.98 67.7024 1101.54 68.1501 1101.54 68.7024H1102.54ZM1160.92 68.7024H1161.92C1161.92 68.1501 1161.47 67.7024 1160.92 67.7024V68.7024ZM1160.92 86.7067V87.7067C1161.47 87.7067 1161.92 87.259 1161.92 86.7067H1160.92ZM1102.54 86.7067H1101.54C1101.54 87.259 1101.98 87.7067 1102.54 87.7067V86.7067ZM1104.08 111.582V110.582H1079.36V111.582V112.582H1104.08V111.582ZM1079.36 111.582L1080.31 111.909L1117.97 2.8178L1117.02 2.49149L1116.08 2.16517L1078.42 111.256L1079.36 111.582ZM1117.02 2.49149V3.49149H1146.75V2.49149V1.49149H1117.02V2.49149ZM1146.75 2.49149L1145.8 2.81739L1183.41 111.908L1184.35 111.582L1185.3 111.256L1147.69 2.16558L1146.75 2.49149ZM1184.35 111.582V110.582H1159.64V111.582V112.582H1184.35V111.582ZM1159.64 111.582L1160.59 111.274L1133.26 27.1116L1132.31 27.4205L1131.36 27.7293L1158.69 111.891L1159.64 111.582ZM1132.31 27.4205V26.4205H1131.46V27.4205V28.4205H1132.31V27.4205ZM1131.46 27.4205L1130.51 27.1111L1103.13 111.273L1104.08 111.582L1105.03 111.892L1132.41 27.7298L1131.46 27.4205ZM1102.54 68.7024V69.7024H1160.92V68.7024V67.7024H1102.54V68.7024ZM1160.92 68.7024H1159.92V86.7067H1160.92H1161.92V68.7024H1160.92ZM1160.92 86.7067V85.7067H1102.54V86.7067V87.7067H1160.92V86.7067ZM1102.54 86.7067H1103.54V68.7024H1102.54H1101.54V86.7067H1102.54ZM1288.73 2.49149H1289.73C1289.73 1.9392 1289.28 1.49149 1288.73 1.49149V2.49149ZM1288.73 111.582V112.582C1289.28 112.582 1289.73 112.135 1289.73 111.582H1288.73ZM1268.81 111.582L1267.99 112.151C1268.17 112.421 1268.48 112.582 1268.81 112.582V111.582ZM1221.35 42.9212L1222.17 42.3526C1221.98 42.0824 1221.68 41.9212 1221.35 41.9212V42.9212ZM1220.55 42.9212V41.9212C1220 41.9212 1219.55 42.3689 1219.55 42.9212H1220.55ZM1220.55 111.582V112.582C1221.1 112.582 1221.55 112.135 1221.55 111.582H1220.55ZM1197.48 111.582H1196.48C1196.48 112.135 1196.93 112.582 1197.48 112.582V111.582ZM1197.48 2.49149V1.49149C1196.93 1.49149 1196.48 1.9392 1196.48 2.49149H1197.48ZM1217.73 2.49149L1218.55 1.92561C1218.36 1.65388 1218.06 1.49149 1217.73 1.49149V2.49149ZM1264.81 71.0994L1263.99 71.6653C1264.18 71.937 1264.48 72.0994 1264.81 72.0994V71.0994ZM1265.77 71.0994V72.0994C1266.33 72.0994 1266.77 71.6517 1266.77 71.0994H1265.77ZM1265.77 2.49149V1.49149C1265.22 1.49149 1264.77 1.9392 1264.77 2.49149H1265.77ZM1288.73 2.49149H1287.73V111.582H1288.73H1289.73V2.49149H1288.73ZM1288.73 111.582V110.582H1268.81V111.582V112.582H1288.73V111.582ZM1268.81 111.582L1269.63 111.014L1222.17 42.3526L1221.35 42.9212L1220.53 43.4898L1267.99 112.151L1268.81 111.582ZM1221.35 42.9212V41.9212H1220.55V42.9212V43.9212H1221.35V42.9212ZM1220.55 42.9212H1219.55V111.582H1220.55H1221.55V42.9212H1220.55ZM1220.55 111.582V110.582H1197.48V111.582V112.582H1220.55V111.582ZM1197.48 111.582H1198.48V2.49149H1197.48H1196.48V111.582H1197.48ZM1197.48 2.49149V3.49149H1217.73V2.49149V1.49149H1197.48V2.49149ZM1217.73 2.49149L1216.9 3.05737L1263.99 71.6653L1264.81 71.0994L1265.64 70.5336L1218.55 1.92561L1217.73 2.49149ZM1264.81 71.0994V72.0994H1265.77V71.0994V70.0994H1264.81V71.0994ZM1265.77 71.0994H1266.77V2.49149H1265.77H1264.77V71.0994H1265.77ZM1265.77 2.49149V3.49149H1288.73V2.49149V1.49149H1265.77V2.49149Z" fill="white" mask="url(#path-1-outside-1_52_64)"/>
</svg>
