<svg width="1296" height="121" viewBox="0 0 1296 121" fill="none" xmlns="http://www.w3.org/2000/svg">
<mask id="path-1-outside-1_52_64" maskUnits="userSpaceOnUse" x="-0.96582" y="-0.417603" width="1297" height="121" fill="black">
<rect fill="white" x="-0.96582" y="-0.417603" width="1297" height="121"/>
<path d="M66.6954 36.8658C66.2693 32.5689 64.4404 29.2308 61.2089 26.8516C57.9774 24.4723 53.5917 23.2827 48.0519 23.2827C44.2877 23.2827 41.1095 23.8153 38.5171 24.8807C35.9248 25.9105 33.9362 27.3487 32.5512 29.1953C31.2018 31.0419 30.5271 33.1371 30.5271 35.4808C30.4561 37.434 30.8644 39.1385 31.7522 40.5945C32.6755 42.0504 33.9362 43.3111 35.5342 44.3764C37.1322 45.4063 38.9788 46.3118 41.074 47.093C43.1691 47.8388 45.4063 48.478 47.7856 49.0107L57.5867 51.3544C62.3453 52.4198 66.7132 53.8402 70.6904 55.6158C74.6677 57.3913 78.1123 59.5753 81.0242 62.1676C83.9362 64.76 86.1911 67.8139 87.7892 71.3296C89.4227 74.8452 90.2572 78.8757 90.2927 83.4212C90.2572 90.0973 88.5527 95.8857 85.1791 100.786C81.841 105.651 77.0115 109.433 70.6904 112.132C64.4049 114.795 56.8232 116.127 47.9454 116.127C39.1386 116.127 31.4681 114.778 24.934 112.079C18.4355 109.38 13.3573 105.385 9.69966 100.094C6.0775 94.7671 4.17765 88.1797 4.00009 80.3317H26.319C26.5676 83.9894 27.6151 87.0433 29.4617 89.4936C31.3438 91.9084 33.8474 93.7372 36.9724 94.9801C40.1329 96.1875 43.7018 96.7912 47.6791 96.7912C51.5853 96.7912 54.9767 96.223 57.8531 95.0867C60.765 93.9503 63.02 92.37 64.618 90.3459C66.216 88.3217 67.015 85.9957 67.015 83.3679C67.015 80.9176 66.287 78.858 64.8311 77.1889C63.4106 75.5199 61.3154 74.0994 58.5455 72.9276C55.8112 71.7557 52.4553 70.6904 48.4781 69.7315L36.5995 66.7486C27.4021 64.5114 20.14 61.0135 14.8133 56.255C9.48659 51.4965 6.841 45.0867 6.87651 37.0256C6.841 30.4205 8.59881 24.6499 12.1499 19.7138C15.7366 14.7777 20.6549 10.9247 26.9049 8.15484C33.1549 5.38495 40.2572 4.00001 48.2117 4.00001C56.3083 4.00001 63.3751 5.38495 69.412 8.15484C75.4845 10.9247 80.2075 14.7777 83.5811 19.7138C86.9546 24.6499 88.6947 30.3672 88.8012 36.8658H66.6954ZM105.807 114.582V5.49149H128.871V50.5021H175.693V5.49149H198.704V114.582H175.693V69.5185H128.871V114.582H105.807ZM240.785 5.49149V114.582H217.721V5.49149H240.785ZM351.008 5.49149V114.582H331.086L283.625 45.9212H282.826V114.582H259.762V5.49149H280.003L327.091 74.0994H328.05V5.49149H351.008ZM408.736 114.582H370.065V5.49149H409.056C420.029 5.49149 429.475 7.67544 437.394 12.0433C445.313 16.3757 451.403 22.608 455.665 30.7401C459.962 38.8722 462.11 48.6023 462.11 59.9304C462.11 71.294 459.962 81.0597 455.665 89.2273C451.403 97.3949 445.278 103.663 437.288 108.031C429.333 112.398 419.816 114.582 408.736 114.582ZM393.129 94.8203H407.778C414.596 94.8203 420.331 93.6129 424.983 91.1982C429.67 88.7479 433.186 84.9659 435.53 79.8523C437.909 74.7031 439.099 68.0625 439.099 59.9304C439.099 51.8693 437.909 45.282 435.53 40.1683C433.186 35.0547 429.688 31.2905 425.036 28.8757C420.384 26.4609 414.649 25.2536 407.831 25.2536H393.129V94.8203ZM579.444 60.0369C579.444 71.9332 577.189 82.054 572.679 90.3992C568.205 98.7443 562.097 105.119 554.355 109.522C546.649 113.89 537.984 116.074 528.361 116.074C518.666 116.074 509.966 113.872 502.26 109.469C494.554 105.065 488.464 98.6911 483.989 90.3459C479.515 82.0007 477.278 71.8977 477.278 60.0369C477.278 48.1406 479.515 38.0199 483.989 29.6747C488.464 21.3296 494.554 14.973 502.26 10.6051C509.966 6.20171 518.666 4.00001 528.361 4.00001C537.984 4.00001 546.649 6.20171 554.355 10.6051C562.097 14.973 568.205 21.3296 572.679 29.6747C577.189 38.0199 579.444 48.1406 579.444 60.0369ZM556.06 60.0369C556.06 52.331 554.906 45.8324 552.597 40.5412C550.325 35.25 547.111 31.2372 542.956 28.5029C538.801 25.7685 533.936 24.4013 528.361 24.4013C522.786 24.4013 517.921 25.7685 513.766 28.5029C509.611 31.2372 506.379 35.25 504.071 40.5412C501.798 45.8324 500.662 52.331 500.662 60.0369C500.662 67.7429 501.798 74.2415 504.071 79.5327C506.379 84.8239 509.611 88.8367 513.766 91.571C517.921 94.3054 522.786 95.6726 528.361 95.6726C533.936 95.6726 538.801 94.3054 542.956 91.571C547.111 88.8367 550.325 84.8239 552.597 79.5327C554.906 74.2415 556.06 67.7429 556.06 60.0369ZM687.776 5.49149V114.582H667.854L620.393 45.9212H619.594V114.582H596.529V5.49149H616.771L663.859 74.0994H664.818V5.49149H687.776ZM779.169 40.7543C778.423 38.1619 777.375 35.8715 776.026 33.8828C774.677 31.8587 773.025 30.1541 771.072 28.7692C769.155 27.3487 766.953 26.2656 764.467 25.5199C762.017 24.7742 759.3 24.4013 756.317 24.4013C750.742 24.4013 745.841 25.7862 741.616 28.5561C737.425 31.326 734.158 35.3565 731.814 40.6477C729.471 45.9034 728.299 52.331 728.299 59.9304C728.299 67.5298 729.453 73.9929 731.761 79.3196C734.069 84.6463 737.336 88.7124 741.562 91.5178C745.788 94.2877 750.777 95.6726 756.53 95.6726C761.75 95.6726 766.207 94.7493 769.9 92.9027C773.629 91.0206 776.47 88.375 778.423 84.9659C780.412 81.5568 781.406 77.5263 781.406 72.8743L786.093 73.5668H757.968V56.2017H803.618V69.9446C803.618 79.5327 801.594 87.7713 797.546 94.6605C793.498 101.514 787.922 106.805 780.82 110.534C773.718 114.227 765.586 116.074 756.424 116.074C746.196 116.074 737.212 113.819 729.471 109.309C721.729 104.764 715.692 98.3182 711.36 89.973C707.063 81.5923 704.915 71.6492 704.915 60.1435C704.915 51.3011 706.193 43.4176 708.75 36.4929C711.342 29.5327 714.964 23.6378 719.616 18.8083C724.268 13.9787 729.684 10.3033 735.863 7.78197C742.042 5.26066 748.736 4.00001 755.944 4.00001C762.123 4.00001 767.876 4.90555 773.203 6.71663C778.53 8.4922 783.253 11.0135 787.372 14.2805C791.527 17.5476 794.918 21.4361 797.546 25.946C800.174 30.4205 801.861 35.3565 802.606 40.7543H779.169ZM845.5 114.582L814.285 5.49149H839.48L857.538 81.2905H858.443L878.365 5.49149H899.938L919.807 81.4503H920.766L938.823 5.49149H964.019L932.804 114.582H910.326L889.551 43.2578H888.699L867.978 114.582H845.5ZM976.363 114.582V5.49149H999.428V50.5021H1046.25V5.49149H1069.26V114.582H1046.25V69.5185H999.428V114.582H976.363ZM1107.08 114.582H1082.36L1120.02 5.49149H1149.75L1187.35 114.582H1162.64L1135.31 30.4205H1134.46L1107.08 114.582ZM1105.54 71.7024H1163.92V89.7067H1105.54V71.7024ZM1291.73 5.49149V114.582H1271.81L1224.35 45.9212H1223.55V114.582H1200.48V5.49149H1220.73L1267.81 74.0994H1268.77V5.49149H1291.73Z"/>
</mask>
<path d="M66.6954 36.8658L62.7149 37.2605C62.9179 39.3068 64.6391 40.8658 66.6954 40.8658V36.8658ZM38.5171 24.8807L39.9939 28.5981C40.0085 28.5923 40.0231 28.5864 40.0376 28.5805L38.5171 24.8807ZM32.5512 29.1953L29.3512 26.7953C29.3413 26.8086 29.3314 26.8219 29.3217 26.8353L32.5512 29.1953ZM30.5271 35.4808L34.5244 35.6262C34.5262 35.5778 34.5271 35.5293 34.5271 35.4808H30.5271ZM31.7522 40.5945L28.337 42.6769C28.3492 42.6969 28.3616 42.7168 28.3742 42.7366L31.7522 40.5945ZM35.5342 44.3764L33.3154 47.7046C33.3326 47.7161 33.35 47.7275 33.3674 47.7387L35.5342 44.3764ZM41.074 47.093L39.6764 50.841C39.6951 50.8479 39.7139 50.8548 39.7327 50.8615L41.074 47.093ZM47.7856 49.0107L48.7159 45.1203C48.6971 45.1159 48.6783 45.1115 48.6595 45.1073L47.7856 49.0107ZM57.5867 51.3544L56.6564 55.2447C56.6752 55.2492 56.694 55.2536 56.7128 55.2578L57.5867 51.3544ZM70.6904 55.6158L69.0598 59.2683H69.0598L70.6904 55.6158ZM81.0242 62.1676L83.684 59.18H83.684L81.0242 62.1676ZM87.7892 71.3296L84.1477 72.9848C84.1523 72.9949 84.1569 73.005 84.1616 73.0151L87.7892 71.3296ZM90.2927 83.4212L94.2926 83.4424C94.2927 83.4249 94.2927 83.4074 94.2926 83.3899L90.2927 83.4212ZM85.1791 100.786L81.8843 98.5181L81.8808 98.5232L85.1791 100.786ZM70.6904 112.132L72.251 115.815L72.2611 115.811L70.6904 112.132ZM24.934 112.079L23.3999 115.773L23.407 115.776L24.934 112.079ZM9.69966 100.094L6.39196 102.343C6.39771 102.351 6.40349 102.36 6.40931 102.368L9.69966 100.094ZM4.00009 80.3317V76.3317C2.92354 76.3317 1.89243 76.7656 1.13985 77.5354C0.387274 78.3052 -0.0232382 79.3459 0.00111198 80.4222L4.00009 80.3317ZM26.319 80.3317L30.3098 80.0605C30.1671 77.9614 28.4229 76.3317 26.319 76.3317V80.3317ZM29.4617 89.4936L26.2673 91.901C26.2803 91.9183 26.2935 91.9355 26.3068 91.9526L29.4617 89.4936ZM36.9724 94.9801L35.4941 98.6969C35.511 98.7037 35.5279 98.7103 35.5449 98.7167L36.9724 94.9801ZM57.8531 95.0867L56.3989 91.3604C56.3937 91.3624 56.3885 91.3644 56.3834 91.3664L57.8531 95.0867ZM64.618 90.3459L67.7575 92.8245H67.7575L64.618 90.3459ZM64.8311 77.1889L61.7849 79.7814C61.7954 79.7938 61.8061 79.8061 61.8168 79.8184L64.8311 77.1889ZM58.5455 72.9276L56.9699 76.6041C56.9756 76.6066 56.9813 76.609 56.987 76.6114L58.5455 72.9276ZM48.4781 69.7315L47.5038 73.6111C47.5161 73.6142 47.5284 73.6172 47.5406 73.6201L48.4781 69.7315ZM36.5995 66.7486L37.5738 62.869C37.5642 62.8666 37.5545 62.8643 37.5449 62.8619L36.5995 66.7486ZM14.8133 56.255L12.1484 59.238H12.1484L14.8133 56.255ZM6.87651 37.0256L10.8765 37.0432C10.8765 37.0302 10.8765 37.0171 10.8765 37.0041L6.87651 37.0256ZM12.1499 19.7138L8.914 17.3625C8.91029 17.3676 8.9066 17.3727 8.90293 17.3778L12.1499 19.7138ZM69.412 8.15484L67.7439 11.7904L67.752 11.7941L69.412 8.15484ZM83.5811 19.7138L80.2787 21.9708L80.2787 21.9708L83.5811 19.7138ZM88.8012 36.8658V40.8658C89.8735 40.8658 90.9008 40.4353 91.6527 39.6709C92.4047 38.9066 92.8183 37.8723 92.8007 36.8002L88.8012 36.8658ZM66.6954 36.8658L70.6759 36.471C70.1475 31.143 67.7996 26.7368 63.5805 23.6305L61.2089 26.8516L58.8373 30.0727C61.0813 31.7249 62.3911 33.9948 62.7149 37.2605L66.6954 36.8658ZM61.2089 26.8516L63.5805 23.6305C59.4437 20.5847 54.1273 19.2827 48.0519 19.2827V23.2827V27.2827C53.0561 27.2827 56.511 28.3599 58.8373 30.0727L61.2089 26.8516ZM48.0519 23.2827V19.2827C43.9348 19.2827 40.2061 19.862 36.9967 21.1809L38.5171 24.8807L40.0376 28.5805C42.0128 27.7687 44.6407 27.2827 48.0519 27.2827V23.2827ZM38.5171 24.8807L37.0404 21.1633C33.9066 22.4082 31.2625 24.247 29.3512 26.7953L32.5512 29.1953L35.7512 31.5953C36.6099 30.4505 37.943 29.4128 39.9939 28.5981L38.5171 24.8807ZM32.5512 29.1953L29.3217 26.8353C27.4585 29.3849 26.5271 32.3111 26.5271 35.4808H30.5271H34.5271C34.5271 33.963 34.9451 32.6989 35.7808 31.5554L32.5512 29.1953ZM30.5271 35.4808L26.5297 35.3355C26.4345 37.9545 26.9837 40.4575 28.337 42.6769L31.7522 40.5945L35.1674 38.512C34.7451 37.8195 34.4776 36.9134 34.5244 35.6262L30.5271 35.4808ZM31.7522 40.5945L28.3742 42.7366C29.6293 44.7158 31.3056 46.3648 33.3154 47.7046L35.5342 44.3764L37.753 41.0482C36.5668 40.2574 35.7218 39.3851 35.1303 38.4523L31.7522 40.5945ZM35.5342 44.3764L33.3674 47.7387C35.2451 48.9488 37.3575 49.9763 39.6764 50.841L41.074 47.093L42.4715 43.3451C40.6 42.6473 39.0193 41.8637 37.701 41.0141L35.5342 44.3764ZM41.074 47.093L39.7327 50.8615C41.9945 51.6665 44.389 52.3492 46.9117 52.914L47.7856 49.0107L48.6595 45.1073C46.4237 44.6067 44.3437 44.011 42.4153 43.3246L41.074 47.093ZM47.7856 49.0107L46.8553 52.901L56.6564 55.2447L57.5867 51.3544L58.517 47.4641L48.7159 45.1203L47.7856 49.0107ZM57.5867 51.3544L56.7128 55.2578C61.2418 56.2717 65.3527 57.6133 69.0598 59.2683L70.6904 55.6158L72.321 51.9632C68.0736 50.0671 63.4487 48.5678 58.4606 47.451L57.5867 51.3544ZM70.6904 55.6158L69.0598 59.2683C72.7054 60.8958 75.7931 62.866 78.3645 65.1552L81.0242 62.1676L83.684 59.18C80.4315 56.2846 76.63 53.8869 72.321 51.9632L70.6904 55.6158ZM81.0242 62.1676L78.3645 65.1552C80.864 67.3804 82.7827 69.9818 84.1477 72.9848L87.7892 71.3296L91.4306 69.6743C89.5996 65.646 87.0083 62.1395 83.684 59.18L81.0242 62.1676ZM87.7892 71.3296L84.1616 73.0151C85.5162 75.9304 86.261 79.3809 86.2928 83.4524L90.2927 83.4212L94.2926 83.3899C94.2534 78.3705 93.3292 73.76 91.4167 69.644L87.7892 71.3296ZM90.2927 83.4212L86.2928 83.3999C86.261 89.3751 84.7482 94.3579 81.8843 98.5181L85.1791 100.786L88.4738 103.054C92.3571 97.4134 94.2534 90.8196 94.2926 83.4424L90.2927 83.4212ZM85.1791 100.786L81.8808 98.5232C79.0394 102.664 74.8596 106.003 69.1197 108.453L70.6904 112.132L72.2611 115.811C79.1633 112.864 84.6426 108.638 88.4773 103.049L85.1791 100.786ZM70.6904 112.132L69.1298 108.449C63.4622 110.851 56.4408 112.127 47.9454 112.127V116.127V120.127C57.2057 120.127 65.3476 118.74 72.251 115.815L70.6904 112.132ZM47.9454 116.127V112.127C39.5381 112.127 32.4078 110.838 26.4611 108.382L24.934 112.079L23.407 115.776C30.5285 118.717 38.7391 120.127 47.9454 120.127V116.127ZM24.934 112.079L26.4682 108.385C20.6099 105.952 16.17 102.419 12.99 97.8192L9.69966 100.094L6.40931 102.368C10.5447 108.351 16.261 112.808 23.3999 115.773L24.934 112.079ZM9.69966 100.094L13.0074 97.8445C9.9055 93.2829 8.16302 87.4878 7.99907 80.2412L4.00009 80.3317L0.00111198 80.4222C0.192276 88.8716 2.24951 96.2512 6.39196 102.343L9.69966 100.094ZM4.00009 80.3317V84.3317H26.319V80.3317V76.3317H4.00009V80.3317ZM26.319 80.3317L22.3282 80.6029C22.619 84.8818 23.8692 88.7189 26.2673 91.901L29.4617 89.4936L32.6562 87.0862C31.3611 85.3677 30.5161 83.0969 30.3098 80.0605L26.319 80.3317ZM29.4617 89.4936L26.3068 91.9526C28.6683 94.9824 31.7753 97.2179 35.4941 98.6969L36.9724 94.9801L38.4507 91.2633C35.9195 90.2566 34.0193 88.8343 32.6166 87.0346L29.4617 89.4936ZM36.9724 94.9801L35.5449 98.7167C39.2336 100.126 43.2979 100.791 47.6791 100.791V96.7912V92.7912C44.1057 92.7912 41.0322 92.2491 38.3999 91.2435L36.9724 94.9801ZM47.6791 96.7912V100.791C51.9614 100.791 55.8732 100.17 59.3228 98.8069L57.8531 95.0867L56.3834 91.3664C54.0801 92.2764 51.2093 92.7912 47.6791 92.7912V96.7912ZM57.8531 95.0867L59.3072 98.813C62.7415 97.4728 65.6338 95.5145 67.7575 92.8245L64.618 90.3459L61.4785 87.8673C60.4061 89.2256 58.7885 90.4278 56.3989 91.3604L57.8531 95.0867ZM64.618 90.3459L67.7575 92.8245C69.9242 90.08 71.015 86.8767 71.015 83.3679H67.015H63.015C63.015 85.1148 62.5078 86.5635 61.4785 87.8673L64.618 90.3459ZM67.015 83.3679H71.015C71.015 80.0613 70.0059 77.0362 67.8453 74.5594L64.8311 77.1889L61.8168 79.8184C62.5682 80.6797 63.015 81.774 63.015 83.3679H67.015ZM64.8311 77.1889L67.8772 74.5965C65.931 72.3097 63.2458 70.5729 60.1041 69.2437L58.5455 72.9276L56.987 76.6114C59.3851 77.626 60.8902 78.7301 61.7849 79.7814L64.8311 77.1889ZM58.5455 72.9276L60.1212 69.251C57.12 67.9648 53.5363 66.8363 49.4155 65.8429L48.4781 69.7315L47.5406 73.6201C51.3744 74.5444 54.5023 75.5466 56.9699 76.6041L58.5455 72.9276ZM48.4781 69.7315L49.4523 65.852L37.5738 62.869L36.5995 66.7486L35.6253 70.6281L47.5038 73.6111L48.4781 69.7315ZM36.5995 66.7486L37.5449 62.8619C28.7862 60.7314 22.1812 57.4734 17.4782 53.2719L14.8133 56.255L12.1484 59.238C18.0988 64.5536 26.018 68.2913 35.6541 70.6353L36.5995 66.7486ZM14.8133 56.255L17.4782 53.2719C13.1205 49.3791 10.8453 44.1229 10.8765 37.0432L6.87651 37.0256L2.87655 37.0079C2.83671 46.0504 5.85265 53.6138 12.1484 59.238L14.8133 56.255ZM6.87651 37.0256L10.8765 37.0041C10.8451 31.1676 12.3828 26.2394 15.397 22.0498L12.1499 19.7138L8.90293 17.3778C4.81478 23.0603 2.83692 29.6733 2.87657 37.0471L6.87651 37.0256ZM12.1499 19.7138L15.3859 22.0651C18.5103 17.7651 22.8403 14.3314 28.5256 11.8118L26.9049 8.15484L25.2842 4.49788C18.4695 7.51804 12.9629 11.7903 8.914 17.3625L12.1499 19.7138ZM26.9049 8.15484L28.5256 11.8118C34.1885 9.3021 40.7249 8.00001 48.2117 8.00001V4.00001V7.62939e-06C39.7895 7.62939e-06 32.1213 1.4678 25.2842 4.49788L26.9049 8.15484ZM48.2117 4.00001V8.00001C55.856 8.00001 62.332 9.3073 67.7439 11.7904L69.412 8.15484L71.0801 4.51926C64.4182 1.4626 56.7606 7.62939e-06 48.2117 7.62939e-06V4.00001ZM69.412 8.15484L67.752 11.7941C73.2405 14.2976 77.3629 17.7046 80.2787 21.9708L83.5811 19.7138L86.8835 17.4568C83.0521 11.8508 77.7284 7.5518 71.072 4.51556L69.412 8.15484ZM83.5811 19.7138L80.2787 21.9708C83.1719 26.204 84.7069 31.1446 84.8018 36.9313L88.8012 36.8658L92.8007 36.8002C92.6825 29.5898 90.7374 23.0957 86.8834 17.4568L83.5811 19.7138ZM88.8012 36.8658V32.8658H66.6954V36.8658V40.8658H88.8012V36.8658ZM105.807 114.582H101.807C101.807 116.792 103.598 118.582 105.807 118.582V114.582ZM105.807 5.49149V1.49149C103.598 1.49149 101.807 3.28235 101.807 5.49149H105.807ZM128.871 5.49149H132.871C132.871 3.28235 131.081 1.49149 128.871 1.49149V5.49149ZM128.871 50.5021H124.871C124.871 52.7113 126.662 54.5021 128.871 54.5021V50.5021ZM175.693 50.5021V54.5021C177.902 54.5021 179.693 52.7113 179.693 50.5021H175.693ZM175.693 5.49149V1.49149C173.484 1.49149 171.693 3.28235 171.693 5.49149H175.693ZM198.704 5.49149H202.704C202.704 3.28235 200.914 1.49149 198.704 1.49149V5.49149ZM198.704 114.582V118.582C200.914 118.582 202.704 116.792 202.704 114.582H198.704ZM175.693 114.582H171.693C171.693 116.792 173.484 118.582 175.693 118.582V114.582ZM175.693 69.5185H179.693C179.693 67.3093 177.902 65.5185 175.693 65.5185V69.5185ZM128.871 69.5185V65.5185C126.662 65.5185 124.871 67.3093 124.871 69.5185H128.871ZM128.871 114.582V118.582C131.081 118.582 132.871 116.792 132.871 114.582H128.871ZM105.807 114.582H109.807V5.49149H105.807H101.807V114.582H105.807ZM105.807 5.49149V9.49149H128.871V5.49149V1.49149H105.807V5.49149ZM128.871 5.49149H124.871V50.5021H128.871H132.871V5.49149H128.871ZM128.871 50.5021V54.5021H175.693V50.5021V46.5021H128.871V50.5021ZM175.693 50.5021H179.693V5.49149H175.693H171.693V50.5021H175.693ZM175.693 5.49149V9.49149H198.704V5.49149V1.49149H175.693V5.49149ZM198.704 5.49149H194.704V114.582H198.704H202.704V5.49149H198.704ZM198.704 114.582V110.582H175.693V114.582V118.582H198.704V114.582ZM175.693 114.582H179.693V69.5185H175.693H171.693V114.582H175.693ZM175.693 69.5185V65.5185H128.871V69.5185V73.5185H175.693V69.5185ZM128.871 69.5185H124.871V114.582H128.871H132.871V69.5185H128.871ZM128.871 114.582V110.582H105.807V114.582V118.582H128.871V114.582ZM240.785 5.49149H244.785C244.785 3.28235 242.995 1.49149 240.785 1.49149V5.49149ZM240.785 114.582V118.582C242.995 118.582 244.785 116.792 244.785 114.582H240.785ZM217.721 114.582H213.721C213.721 116.792 215.512 118.582 217.721 118.582V114.582ZM217.721 5.49149V1.49149C215.512 1.49149 213.721 3.28235 213.721 5.49149H217.721ZM240.785 5.49149H236.785V114.582H240.785H244.785V5.49149H240.785ZM240.785 114.582V110.582H217.721V114.582V118.582H240.785V114.582ZM217.721 114.582H221.721V5.49149H217.721H213.721V114.582H217.721ZM217.721 5.49149V9.49149H240.785V5.49149V1.49149H217.721V5.49149ZM351.008 5.49149H355.008C355.008 3.28235 353.217 1.49149 351.008 1.49149V5.49149ZM351.008 114.582V118.582C353.217 118.582 355.008 116.792 355.008 114.582H351.008ZM331.086 114.582L327.796 116.857C328.543 117.937 329.773 118.582 331.086 118.582V114.582ZM283.625 45.9212L286.916 43.6467C286.169 42.5661 284.939 41.9212 283.625 41.9212V45.9212ZM282.826 45.9212V41.9212C280.617 41.9212 278.826 43.712 278.826 45.9212H282.826ZM282.826 114.582V118.582C285.036 118.582 286.826 116.792 286.826 114.582H282.826ZM259.762 114.582H255.762C255.762 116.792 257.553 118.582 259.762 118.582V114.582ZM259.762 5.49149V1.49149C257.553 1.49149 255.762 3.28235 255.762 5.49149H259.762ZM280.003 5.49149L283.301 3.22798C282.555 2.14105 281.322 1.49149 280.003 1.49149V5.49149ZM327.091 74.0994L323.793 76.3629C324.539 77.4499 325.773 78.0994 327.091 78.0994V74.0994ZM328.05 74.0994V78.0994C330.259 78.0994 332.05 76.3086 332.05 74.0994H328.05ZM328.05 5.49149V1.49149C325.841 1.49149 324.05 3.28235 324.05 5.49149H328.05ZM351.008 5.49149H347.008V114.582H351.008H355.008V5.49149H351.008ZM351.008 114.582V110.582H331.086V114.582V118.582H351.008V114.582ZM331.086 114.582L334.377 112.308L286.916 43.6467L283.625 45.9212L280.335 48.1956L327.796 116.857L331.086 114.582ZM283.625 45.9212V41.9212H282.826V45.9212V49.9212H283.625V45.9212ZM282.826 45.9212H278.826V114.582H282.826H286.826V45.9212H282.826ZM282.826 114.582V110.582H259.762V114.582V118.582H282.826V114.582ZM259.762 114.582H263.762V5.49149H259.762H255.762V114.582H259.762ZM259.762 5.49149V9.49149H280.003V5.49149V1.49149H259.762V5.49149ZM280.003 5.49149L276.705 7.75499L323.793 76.3629L327.091 74.0994L330.389 71.8359L283.301 3.22798L280.003 5.49149ZM327.091 74.0994V78.0994H328.05V74.0994V70.0994H327.091V74.0994ZM328.05 74.0994H332.05V5.49149H328.05H324.05V74.0994H328.05ZM328.05 5.49149V9.49149H351.008V5.49149V1.49149H328.05V5.49149ZM370.065 114.582H366.065C366.065 116.792 367.855 118.582 370.065 118.582V114.582ZM370.065 5.49149V1.49149C367.855 1.49149 366.065 3.28235 366.065 5.49149H370.065ZM437.394 12.0433L435.462 15.5459L435.474 15.5525L437.394 12.0433ZM455.665 30.7401L452.122 32.5967L452.128 32.6088L455.665 30.7401ZM455.665 89.2273L452.125 87.3649L452.118 87.377L455.665 89.2273ZM437.288 108.031L435.369 104.521L435.362 104.524L437.288 108.031ZM393.129 94.8203H389.129C389.129 97.0295 390.92 98.8203 393.129 98.8203V94.8203ZM424.983 91.1982L426.826 94.7484L426.836 94.7431L424.983 91.1982ZM435.53 79.8523L431.899 78.1745L431.893 78.1857L435.53 79.8523ZM435.53 40.1683L431.893 41.835C431.897 41.8419 431.9 41.8488 431.903 41.8557L435.53 40.1683ZM425.036 28.8757L426.879 25.3255V25.3255L425.036 28.8757ZM393.129 25.2536V21.2536C390.92 21.2536 389.129 23.0444 389.129 25.2536H393.129ZM408.736 114.582V110.582H370.065V114.582V118.582H408.736V114.582ZM370.065 114.582H374.065V5.49149H370.065H366.065V114.582H370.065ZM370.065 5.49149V9.49149H409.056V5.49149V1.49149H370.065V5.49149ZM409.056 5.49149V9.49149C419.497 9.49149 428.249 11.5671 435.462 15.5459L437.394 12.0433L439.326 8.54079C430.701 3.78377 420.561 1.49149 409.056 1.49149V5.49149ZM437.394 12.0433L435.474 15.5525C442.689 19.4994 448.22 25.1508 452.122 32.5967L455.665 30.7401L459.208 28.8835C454.587 20.0652 447.938 13.2521 439.314 8.53416L437.394 12.0433ZM455.665 30.7401L452.128 32.6088C456.058 40.0465 458.11 49.1049 458.11 59.9304H462.11H466.11C466.11 48.0997 463.865 37.6979 459.201 28.8714L455.665 30.7401ZM462.11 59.9304H458.11C458.11 70.793 456.057 79.8896 452.125 87.3649L455.665 89.2273L459.205 91.0896C463.866 82.2297 466.11 71.795 466.11 59.9304H462.11ZM455.665 89.2273L452.118 87.377C448.219 94.8513 442.655 100.537 435.369 104.521L437.288 108.031L439.206 111.54C447.9 106.788 454.588 99.9385 459.211 91.0775L455.665 89.2273ZM437.288 108.031L435.362 104.524C428.115 108.504 419.29 110.582 408.736 110.582V114.582V118.582C420.342 118.582 430.551 116.293 439.213 111.537L437.288 108.031ZM393.129 94.8203V98.8203H407.778V94.8203V90.8203H393.129V94.8203ZM407.778 94.8203V98.8203C415.051 98.8203 421.459 97.5341 426.826 94.7484L424.983 91.1982L423.14 87.648C419.203 89.6918 414.141 90.8203 407.778 90.8203V94.8203ZM424.983 91.1982L426.836 94.7431C432.361 91.8547 436.478 87.3843 439.166 81.5189L435.53 79.8523L431.893 78.1857C429.894 82.5476 426.979 85.6411 423.13 87.6533L424.983 91.1982ZM435.53 79.8523L439.161 81.5301C441.865 75.6782 443.099 68.4091 443.099 59.9304H439.099H435.099C435.099 67.7159 433.953 73.7281 431.899 78.1745L435.53 79.8523ZM439.099 59.9304H443.099C443.099 51.5186 441.864 44.2995 439.156 38.4809L435.53 40.1683L431.903 41.8557C433.954 46.2644 435.099 52.22 435.099 59.9304H439.099ZM435.53 40.1683L439.166 38.5017C436.48 32.6413 432.382 28.1818 426.879 25.3255L425.036 28.8757L423.193 32.4259C426.995 34.3991 429.892 37.4681 431.893 41.835L435.53 40.1683ZM425.036 28.8757L426.879 25.3255C421.512 22.5398 415.104 21.2536 407.831 21.2536V25.2536V29.2536C414.194 29.2536 419.256 30.3821 423.193 32.4259L425.036 28.8757ZM407.831 25.2536V21.2536H393.129V25.2536V29.2536H407.831V25.2536ZM393.129 25.2536H389.129V94.8203H393.129H397.129V25.2536H393.129ZM572.679 90.3992L569.16 88.4974L569.154 88.509L572.679 90.3992ZM554.355 109.522L556.328 113.002L556.333 112.999L554.355 109.522ZM502.26 109.469L504.245 105.996L502.26 109.469ZM483.989 90.3459L480.464 92.236V92.236L483.989 90.3459ZM483.989 29.6747L487.515 31.5649V31.5649L483.989 29.6747ZM502.26 10.6051L504.232 14.085L504.245 14.0781L502.26 10.6051ZM554.355 10.6051L552.371 14.0781C552.377 14.0817 552.383 14.0853 552.39 14.0889L554.355 10.6051ZM572.679 29.6747L569.154 31.5649L569.16 31.5765L572.679 29.6747ZM552.597 40.5412L548.922 42.1199C548.925 42.1268 548.928 42.1337 548.931 42.1406L552.597 40.5412ZM542.956 28.5029L540.757 31.8442V31.8442L542.956 28.5029ZM513.766 28.5029L515.965 31.8442V31.8442L513.766 28.5029ZM504.071 40.5412L500.405 38.9418C500.402 38.9487 500.399 38.9556 500.396 38.9625L504.071 40.5412ZM504.071 79.5327L500.396 81.1113C500.399 81.1183 500.402 81.1252 500.405 81.1321L504.071 79.5327ZM513.766 91.571L515.965 88.2297V88.2297L513.766 91.571ZM542.956 91.571L540.757 88.2297V88.2297L542.956 91.571ZM552.597 79.5327L548.931 77.9333C548.928 77.9402 548.925 77.9471 548.922 77.954L552.597 79.5327ZM579.444 60.0369H575.444C575.444 71.4349 573.284 80.8666 569.16 88.4974L572.679 90.3992L576.198 92.3009C581.094 83.2414 583.444 72.4316 583.444 60.0369H579.444ZM572.679 90.3992L569.154 88.509C565.012 96.2339 559.422 102.038 552.378 106.045L554.355 109.522L556.333 112.999C564.771 108.199 571.397 101.255 576.204 92.2893L572.679 90.3992ZM554.355 109.522L552.383 106.042C545.33 110.04 537.355 112.074 528.361 112.074V116.074V120.074C538.614 120.074 547.969 117.74 556.328 113.002L554.355 109.522ZM528.361 116.074V112.074C519.296 112.074 511.291 110.022 504.245 105.996L502.26 109.469L500.275 112.942C508.641 117.722 518.036 120.074 528.361 120.074V116.074ZM502.26 109.469L504.245 105.996C497.235 101.99 491.659 96.1854 487.515 88.4558L483.989 90.3459L480.464 92.236C485.269 101.197 491.874 108.141 500.275 112.942L502.26 109.469ZM483.989 90.3459L487.515 88.4558C483.421 80.8206 481.278 71.4017 481.278 60.0369H477.278H473.278C473.278 72.3938 475.609 83.1808 480.464 92.236L483.989 90.3459ZM477.278 60.0369H481.278C481.278 48.6344 483.422 39.1984 487.515 31.5649L483.989 29.6747L480.464 27.7846C475.608 36.8414 473.278 47.6468 473.278 60.0369H477.278ZM483.989 29.6747L487.515 31.5649C491.658 23.8377 497.23 18.0543 504.232 14.085L502.26 10.6051L500.288 7.12527C491.878 11.8917 485.27 18.8215 480.464 27.7846L483.989 29.6747ZM502.26 10.6051L504.245 14.0781C511.291 10.0514 519.296 8.00001 528.361 8.00001V4.00001V7.62939e-06C518.036 7.62939e-06 508.641 2.35201 500.275 7.13216L502.26 10.6051ZM528.361 4.00001V8.00001C537.349 8.00001 545.319 10.0489 552.371 14.0781L554.355 10.6051L556.34 7.13216C547.979 2.35456 538.62 7.62939e-06 528.361 7.62939e-06V4.00001ZM554.355 10.6051L552.39 14.0889C559.427 18.0595 565.013 23.8424 569.154 31.5649L572.679 29.6747L576.204 27.7846C571.396 18.8167 564.766 11.8866 556.321 7.12138L554.355 10.6051ZM572.679 29.6747L569.16 31.5765C573.284 39.2073 575.444 48.639 575.444 60.0369H579.444H583.444C583.444 47.6423 581.094 36.8325 576.198 27.773L572.679 29.6747ZM556.06 60.0369H560.06C560.06 51.9552 558.853 44.8761 556.264 38.9418L552.597 40.5412L548.931 42.1406C550.959 46.7887 552.06 52.7068 552.06 60.0369H556.06ZM552.597 40.5412L556.273 38.9625C553.741 33.0683 550.062 28.391 545.155 25.1615L542.956 28.5029L540.757 31.8442C544.16 34.0834 546.908 37.4317 548.922 42.1199L552.597 40.5412ZM542.956 28.5029L545.155 25.1615C540.27 21.9467 534.62 20.4013 528.361 20.4013V24.4013V28.4013C533.252 28.4013 537.332 29.5903 540.757 31.8442L542.956 28.5029ZM528.361 24.4013V20.4013C522.102 20.4013 516.452 21.9467 511.567 25.1615L513.766 28.5029L515.965 31.8442C519.389 29.5903 523.469 28.4013 528.361 28.4013V24.4013ZM513.766 28.5029L511.567 25.1615C506.666 28.3871 502.972 33.0568 500.405 38.9418L504.071 40.5412L507.737 42.1406C509.787 37.4432 512.556 34.0874 515.965 31.8442L513.766 28.5029ZM504.071 40.5412L500.396 38.9625C497.85 44.8905 496.662 51.9618 496.662 60.0369H500.662H504.662C504.662 52.7002 505.747 46.7743 507.746 42.1199L504.071 40.5412ZM500.662 60.0369H496.662C496.662 68.1121 497.85 75.1834 500.396 81.1113L504.071 79.5327L507.746 77.954C505.747 73.2996 504.662 67.3737 504.662 60.0369H500.662ZM504.071 79.5327L500.405 81.1321C502.972 87.0171 506.666 91.6868 511.567 94.9124L513.766 91.571L515.965 88.2297C512.556 85.9865 509.787 82.6306 507.737 77.9333L504.071 79.5327ZM513.766 91.571L511.567 94.9124C516.452 98.1272 522.102 99.6726 528.361 99.6726V95.6726V91.6726C523.469 91.6726 519.389 90.4836 515.965 88.2297L513.766 91.571ZM528.361 95.6726V99.6726C534.62 99.6726 540.27 98.1272 545.155 94.9124L542.956 91.571L540.757 88.2297C537.332 90.4836 533.252 91.6726 528.361 91.6726V95.6726ZM542.956 91.571L545.155 94.9124C550.062 91.6829 553.741 87.0056 556.273 81.1113L552.597 79.5327L548.922 77.954C546.908 82.6422 544.16 85.9904 540.757 88.2297L542.956 91.571ZM552.597 79.5327L556.264 81.1321C558.853 75.1977 560.06 68.1187 560.06 60.0369H556.06H552.06C552.06 67.3671 550.959 73.2852 548.931 77.9333L552.597 79.5327ZM687.776 5.49149H691.776C691.776 3.28235 689.985 1.49149 687.776 1.49149V5.49149ZM687.776 114.582V118.582C689.985 118.582 691.776 116.792 691.776 114.582H687.776ZM667.854 114.582L664.564 116.857C665.31 117.937 666.54 118.582 667.854 118.582V114.582ZM620.393 45.9212L623.683 43.6467C622.937 42.5661 621.707 41.9212 620.393 41.9212V45.9212ZM619.594 45.9212V41.9212C617.385 41.9212 615.594 43.712 615.594 45.9212H619.594ZM619.594 114.582V118.582C621.803 118.582 623.594 116.792 623.594 114.582H619.594ZM596.529 114.582H592.529C592.529 116.792 594.32 118.582 596.529 118.582V114.582ZM596.529 5.49149V1.49149C594.32 1.49149 592.529 3.28235 592.529 5.49149H596.529ZM616.771 5.49149L620.069 3.22798C619.323 2.14105 618.089 1.49149 616.771 1.49149V5.49149ZM663.859 74.0994L660.561 76.3629C661.307 77.4499 662.541 78.0994 663.859 78.0994V74.0994ZM664.818 74.0994V78.0994C667.027 78.0994 668.818 76.3086 668.818 74.0994H664.818ZM664.818 5.49149V1.49149C662.609 1.49149 660.818 3.28235 660.818 5.49149H664.818ZM687.776 5.49149H683.776V114.582H687.776H691.776V5.49149H687.776ZM687.776 114.582V110.582H667.854V114.582V118.582H687.776V114.582ZM667.854 114.582L671.144 112.308L623.683 43.6467L620.393 45.9212L617.103 48.1956L664.564 116.857L667.854 114.582ZM620.393 45.9212V41.9212H619.594V45.9212V49.9212H620.393V45.9212ZM619.594 45.9212H615.594V114.582H619.594H623.594V45.9212H619.594ZM619.594 114.582V110.582H596.529V114.582V118.582H619.594V114.582ZM596.529 114.582H600.529V5.49149H596.529H592.529V114.582H596.529ZM596.529 5.49149V9.49149H616.771V5.49149V1.49149H596.529V5.49149ZM616.771 5.49149L613.473 7.75499L660.561 76.3629L663.859 74.0994L667.157 71.8359L620.069 3.22798L616.771 5.49149ZM663.859 74.0994V78.0994H664.818V74.0994V70.0994H663.859V74.0994ZM664.818 74.0994H668.818V5.49149H664.818H660.818V74.0994H664.818ZM664.818 5.49149V9.49149H687.776V5.49149V1.49149H664.818V5.49149ZM779.169 40.7543L775.325 41.8601C775.818 43.5739 777.385 44.7543 779.169 44.7543V40.7543ZM776.026 33.8828L772.698 36.1016C772.704 36.1107 772.71 36.1198 772.716 36.1288L776.026 33.8828ZM771.072 28.7692L768.691 31.9834C768.714 31.9999 768.736 32.0161 768.758 32.0321L771.072 28.7692ZM764.467 25.5199L763.302 29.3466C763.307 29.3481 763.313 29.3497 763.318 29.3512L764.467 25.5199ZM741.615 28.5561L739.423 25.2107C739.418 25.2135 739.414 25.2164 739.41 25.2192L741.615 28.5561ZM731.814 40.6477L735.468 42.2769L735.472 42.2677L731.814 40.6477ZM741.562 91.5178L739.35 94.8503C739.356 94.8546 739.363 94.8589 739.369 94.8632L741.562 91.5178ZM769.9 92.9027L771.689 96.4804C771.694 96.4781 771.698 96.4759 771.703 96.4736L769.9 92.9027ZM778.423 84.9659L774.968 82.9504C774.963 82.9594 774.957 82.9684 774.952 82.9775L778.423 84.9659ZM781.406 72.8743L781.991 68.9172C780.84 68.7473 779.673 69.0864 778.792 69.8462C777.912 70.6061 777.406 71.7114 777.406 72.8743H781.406ZM786.094 73.5668V77.5668C788.189 77.5668 789.929 75.9496 790.083 73.8598C790.236 71.77 788.751 69.9159 786.678 69.6097L786.094 73.5668ZM757.969 73.5668H753.969C753.969 75.7759 755.759 77.5668 757.969 77.5668V73.5668ZM757.969 56.2017V52.2017C755.759 52.2017 753.969 53.9926 753.969 56.2017H757.969ZM803.618 56.2017H807.618C807.618 53.9926 805.828 52.2017 803.618 52.2017V56.2017ZM797.546 94.6605L800.99 96.6948L800.995 96.687L797.546 94.6605ZM780.82 110.534L782.665 114.083C782.67 114.081 782.675 114.078 782.679 114.076L780.82 110.534ZM729.471 109.309L727.445 112.758L727.457 112.765L729.471 109.309ZM711.36 89.973L707.8 91.798C707.803 91.804 707.807 91.81 707.81 91.8161L711.36 89.973ZM708.75 36.4929L705.001 35.0968L704.997 35.1074L708.75 36.4929ZM719.616 18.8083L722.497 21.5832V21.5832L719.616 18.8083ZM735.863 7.78197L734.351 4.07842V4.07842L735.863 7.78197ZM773.203 6.71663L771.915 10.5037C771.923 10.5063 771.93 10.5088 771.938 10.5114L773.203 6.71663ZM787.372 14.2805L784.886 17.4145C784.891 17.418 784.895 17.4214 784.899 17.4249L787.372 14.2805ZM797.546 25.946L794.09 27.9598L794.097 27.9717L797.546 25.946ZM802.606 40.7543V44.7543C803.763 44.7543 804.862 44.2539 805.622 43.382C806.382 42.5102 806.727 41.3523 806.569 40.2068L802.606 40.7543ZM779.169 40.7543L783.013 39.6484C782.164 36.6993 780.95 34.0148 779.336 31.6368L776.026 33.8828L772.716 36.1288C773.801 37.7281 774.682 39.6246 775.325 41.8601L779.169 40.7543ZM776.026 33.8828L779.354 31.664C777.738 29.2394 775.745 27.1789 773.386 25.5063L771.072 28.7692L768.758 32.0321C770.306 33.1294 771.615 34.478 772.698 36.1016L776.026 33.8828ZM771.072 28.7692L773.453 25.555C771.133 23.836 768.507 22.5556 765.616 21.6886L764.467 25.5199L763.318 29.3512C765.399 29.9756 767.177 30.8614 768.691 31.9834L771.072 28.7692ZM764.467 25.5199L765.632 21.6932C762.748 20.8155 759.631 20.4013 756.317 20.4013V24.4013V28.4013C758.969 28.4013 761.286 28.7328 763.302 29.3466L764.467 25.5199ZM756.317 24.4013V20.4013C750.047 20.4013 744.367 21.9701 739.423 25.2107L741.615 28.5561L743.808 31.9015C747.316 29.6024 751.437 28.4013 756.317 28.4013V24.4013ZM741.615 28.5561L739.41 25.2192C734.489 28.472 730.762 33.1461 728.157 39.0277L731.814 40.6477L735.472 42.2677C737.554 37.567 740.361 34.18 743.821 31.893L741.615 28.5561ZM731.814 40.6477L728.161 39.0186C725.528 44.9233 724.299 51.941 724.299 59.9304H728.299H732.299C732.299 52.721 733.413 46.8836 735.468 42.2769L731.814 40.6477ZM728.299 59.9304H724.299C724.299 67.9157 725.509 74.952 728.091 80.91L731.761 79.3196L735.431 77.7292C733.397 73.0339 732.299 67.1439 732.299 59.9304H728.299ZM731.761 79.3196L728.091 80.91C730.661 86.8409 734.391 91.558 739.35 94.8503L741.562 91.5178L743.775 88.1853C740.282 85.8668 737.478 82.4518 735.431 77.7292L731.761 79.3196ZM741.562 91.5178L739.369 94.8632C744.334 98.1172 750.109 99.6726 756.53 99.6726V95.6726V91.6726C751.445 91.6726 747.242 90.4581 743.755 88.1724L741.562 91.5178ZM756.53 95.6726V99.6726C762.212 99.6726 767.313 98.6683 771.689 96.4804L769.9 92.9027L768.111 89.325C765.101 90.8303 761.289 91.6726 756.53 91.6726V95.6726ZM769.9 92.9027L771.703 96.4736C776.084 94.262 779.526 91.0865 781.894 86.9544L778.423 84.9659L774.952 82.9775C773.413 85.6635 771.174 87.7792 768.098 89.3318L769.9 92.9027ZM778.423 84.9659L781.878 86.9814C784.283 82.8591 785.406 78.107 785.406 72.8743H781.406H777.406C777.406 76.9456 776.541 80.2545 774.968 82.9504L778.423 84.9659ZM781.406 72.8743L780.821 76.8314L785.509 77.5238L786.094 73.5668L786.678 69.6097L781.991 68.9172L781.406 72.8743ZM786.094 73.5668V69.5668H757.969V73.5668V77.5668H786.094V73.5668ZM757.969 73.5668H761.969V56.2017H757.969H753.969V73.5668H757.969ZM757.969 56.2017V60.2017H803.618V56.2017V52.2017H757.969V56.2017ZM803.618 56.2017H799.618V69.9446H803.618H807.618V56.2017H803.618ZM803.618 69.9446H799.618C799.618 78.9629 797.719 86.4716 794.097 92.634L797.546 94.6605L800.995 96.687C805.47 89.0711 807.618 80.1024 807.618 69.9446H803.618ZM797.546 94.6605L794.102 92.6262C790.435 98.8348 785.41 103.606 778.961 106.993L780.82 110.534L782.679 114.076C790.434 110.004 796.561 104.194 800.99 96.6948L797.546 94.6605ZM780.82 110.534L778.975 106.985C772.52 110.342 765.037 112.074 756.424 112.074V116.074V120.074C766.135 120.074 774.916 118.113 782.665 114.083L780.82 110.534ZM756.424 116.074V112.074C746.802 112.074 738.532 109.959 731.484 105.853L729.471 109.309L727.457 112.765C735.892 117.679 745.591 120.074 756.424 120.074V116.074ZM729.471 109.309L731.496 105.86C724.435 101.714 718.913 95.8401 714.91 88.13L711.36 89.973L707.81 91.8161C712.472 100.796 719.023 107.813 727.445 112.758L729.471 109.309ZM711.36 89.973L714.919 88.1481C710.969 80.4438 708.914 71.1532 708.914 60.1435H704.914H700.914C700.914 72.1451 703.157 82.7408 707.8 91.798L711.36 89.973ZM704.914 60.1435H708.914C708.914 51.6829 710.138 44.2815 712.502 37.8784L708.75 36.4929L704.997 35.1074C702.248 42.5538 700.914 50.9194 700.914 60.1435H704.914ZM708.75 36.4929L712.498 37.889C714.92 31.3875 718.265 25.9769 722.497 21.5832L719.616 18.8083L716.735 16.0333C711.664 21.2987 707.764 27.6779 705.001 35.0968L708.75 36.4929ZM719.616 18.8083L722.497 21.5832C726.764 17.1533 731.714 13.7951 737.374 11.4855L735.863 7.78197L734.351 4.07842C727.654 6.81144 721.772 10.8041 716.735 16.0333L719.616 18.8083ZM735.863 7.78197L737.374 11.4855C743.036 9.17521 749.212 8.00001 755.944 8.00001V4.00001V7.62939e-06C748.259 7.62939e-06 741.048 1.34612 734.351 4.07842L735.863 7.78197ZM755.944 4.00001V8.00001C761.728 8.00001 767.042 8.84678 771.915 10.5037L773.203 6.71663L774.49 2.92953C768.71 0.964317 762.518 7.62939e-06 755.944 7.62939e-06V4.00001ZM773.203 6.71663L771.938 10.5114C776.853 12.1496 781.156 14.4564 784.886 17.4145L787.372 14.2805L789.857 11.1466C785.349 7.57066 780.207 4.83482 774.468 2.9219L773.203 6.71663ZM787.372 14.2805L784.899 17.4249C788.663 20.3844 791.719 23.8909 794.09 27.9598L797.546 25.946L801.002 23.9322C798.117 18.9813 794.39 14.7107 789.844 11.1362L787.372 14.2805ZM797.546 25.946L794.097 27.9717C796.445 31.9694 797.967 36.3991 798.644 41.3017L802.606 40.7543L806.569 40.2068C805.755 34.314 803.903 28.8715 800.995 23.9203L797.546 25.946ZM802.606 40.7543V36.7543H779.169V40.7543V44.7543H802.606V40.7543ZM845.5 114.582L841.654 115.683C842.145 117.399 843.714 118.582 845.5 118.582V114.582ZM814.285 5.49149V1.49149C813.03 1.49149 811.847 2.0809 811.091 3.08332C810.335 4.08574 810.094 5.38486 810.439 6.59186L814.285 5.49149ZM839.48 5.49149L843.371 4.56451C842.942 2.76288 841.332 1.49149 839.48 1.49149V5.49149ZM857.538 81.2905L853.647 82.2175C854.076 84.0191 855.686 85.2905 857.538 85.2905V81.2905ZM858.443 81.2905V85.2905C860.261 85.2905 861.85 84.0651 862.312 82.3073L858.443 81.2905ZM878.365 5.49149V1.49149C876.548 1.49149 874.959 2.71687 874.497 4.47472L878.365 5.49149ZM899.938 5.49149L903.808 4.47926C903.348 2.71918 901.758 1.49149 899.938 1.49149V5.49149ZM919.807 81.4503L915.937 82.4625C916.398 84.2226 917.988 85.4503 919.807 85.4503V81.4503ZM920.766 81.4503V85.4503C922.619 85.4503 924.229 84.1779 924.657 82.3754L920.766 81.4503ZM938.823 5.49149V1.49149C936.971 1.49149 935.36 2.76383 934.932 4.56635L938.823 5.49149ZM964.019 5.49149L967.864 6.59186C968.21 5.38486 967.968 4.08574 967.213 3.08332C966.457 2.0809 965.274 1.49149 964.019 1.49149V5.49149ZM932.804 114.582V118.582C934.59 118.582 936.159 117.399 936.65 115.683L932.804 114.582ZM910.326 114.582L906.485 115.701C906.982 117.408 908.547 118.582 910.326 118.582V114.582ZM889.551 43.2578L893.392 42.1393C892.895 40.4319 891.33 39.2578 889.551 39.2578V43.2578ZM888.699 43.2578V39.2578C886.92 39.2578 885.354 40.4332 884.858 42.1419L888.699 43.2578ZM867.978 114.582V118.582C869.758 118.582 871.323 117.407 871.819 115.698L867.978 114.582ZM845.5 114.582L849.345 113.482L818.131 4.39111L814.285 5.49149L810.439 6.59186L841.654 115.683L845.5 114.582ZM814.285 5.49149V9.49149H839.48V5.49149V1.49149H814.285V5.49149ZM839.48 5.49149L835.589 6.41846L853.647 82.2175L857.538 81.2905L861.429 80.3635L843.371 4.56451L839.48 5.49149ZM857.538 81.2905V85.2905H858.443V81.2905V77.2905H857.538V81.2905ZM858.443 81.2905L862.312 82.3073L882.234 6.50826L878.365 5.49149L874.497 4.47472L854.575 80.2737L858.443 81.2905ZM878.365 5.49149V9.49149H899.938V5.49149V1.49149H878.365V5.49149ZM899.938 5.49149L896.069 6.50372L915.937 82.4625L919.807 81.4503L923.677 80.4381L903.808 4.47926L899.938 5.49149ZM919.807 81.4503V85.4503H920.766V81.4503V77.4503H919.807V81.4503ZM920.766 81.4503L924.657 82.3754L942.715 6.41662L938.823 5.49149L934.932 4.56635L916.874 80.5252L920.766 81.4503ZM938.823 5.49149V9.49149H964.019V5.49149V1.49149H938.823V5.49149ZM964.019 5.49149L960.173 4.39111L928.959 113.482L932.804 114.582L936.65 115.683L967.864 6.59186L964.019 5.49149ZM932.804 114.582V110.582H910.326V114.582V118.582H932.804V114.582ZM910.326 114.582L914.166 113.464L893.392 42.1393L889.551 43.2578L885.711 44.3764L906.485 115.701L910.326 114.582ZM889.551 43.2578V39.2578H888.699V43.2578V47.2578H889.551V43.2578ZM888.699 43.2578L884.858 42.1419L864.137 113.466L867.978 114.582L871.819 115.698L892.54 44.3737L888.699 43.2578ZM867.978 114.582V110.582H845.5V114.582V118.582H867.978V114.582ZM976.363 114.582H972.363C972.363 116.792 974.154 118.582 976.363 118.582V114.582ZM976.363 5.49149V1.49149C974.154 1.49149 972.363 3.28235 972.363 5.49149H976.363ZM999.428 5.49149H1003.43C1003.43 3.28235 1001.64 1.49149 999.428 1.49149V5.49149ZM999.428 50.5021H995.428C995.428 52.7113 997.219 54.5021 999.428 54.5021V50.5021ZM1046.25 50.5021V54.5021C1048.46 54.5021 1050.25 52.7113 1050.25 50.5021H1046.25ZM1046.25 5.49149V1.49149C1044.04 1.49149 1042.25 3.28235 1042.25 5.49149H1046.25ZM1069.26 5.49149H1073.26C1073.26 3.28235 1071.47 1.49149 1069.26 1.49149V5.49149ZM1069.26 114.582V118.582C1071.47 118.582 1073.26 116.792 1073.26 114.582H1069.26ZM1046.25 114.582H1042.25C1042.25 116.792 1044.04 118.582 1046.25 118.582V114.582ZM1046.25 69.5185H1050.25C1050.25 67.3093 1048.46 65.5185 1046.25 65.5185V69.5185ZM999.428 69.5185V65.5185C997.219 65.5185 995.428 67.3093 995.428 69.5185H999.428ZM999.428 114.582V118.582C1001.64 118.582 1003.43 116.792 1003.43 114.582H999.428ZM976.363 114.582H980.363V5.49149H976.363H972.363V114.582H976.363ZM976.363 5.49149V9.49149H999.428V5.49149V1.49149H976.363V5.49149ZM999.428 5.49149H995.428V50.5021H999.428H1003.43V5.49149H999.428ZM999.428 50.5021V54.5021H1046.25V50.5021V46.5021H999.428V50.5021ZM1046.25 50.5021H1050.25V5.49149H1046.25H1042.25V50.5021H1046.25ZM1046.25 5.49149V9.49149H1069.26V5.49149V1.49149H1046.25V5.49149ZM1069.26 5.49149H1065.26V114.582H1069.26H1073.26V5.49149H1069.26ZM1069.26 114.582V110.582H1046.25V114.582V118.582H1069.26V114.582ZM1046.25 114.582H1050.25V69.5185H1046.25H1042.25V114.582H1046.25ZM1046.25 69.5185V65.5185H999.428V69.5185V73.5185H1046.25V69.5185ZM999.428 69.5185H995.428V114.582H999.428H1003.43V69.5185H999.428ZM999.428 114.582V110.582H976.363V114.582V118.582H999.428V114.582ZM1107.08 114.582V118.582C1108.81 118.582 1110.35 117.467 1110.88 115.82L1107.08 114.582ZM1082.36 114.582L1078.58 113.277C1078.16 114.5 1078.36 115.851 1079.11 116.904C1079.86 117.957 1081.07 118.582 1082.36 118.582V114.582ZM1120.02 5.49149V1.49149C1118.32 1.49149 1116.8 2.57355 1116.24 4.18621L1120.02 5.49149ZM1149.75 5.49149L1153.53 4.18787C1152.97 2.57436 1151.45 1.49149 1149.75 1.49149V5.49149ZM1187.35 114.582V118.582C1188.65 118.582 1189.86 117.957 1190.61 116.905C1191.36 115.852 1191.56 114.501 1191.14 113.279L1187.35 114.582ZM1162.64 114.582L1158.83 115.818C1159.37 117.466 1160.91 118.582 1162.64 118.582V114.582ZM1135.31 30.4205L1139.12 29.1852C1138.58 27.5367 1137.05 26.4205 1135.31 26.4205V30.4205ZM1134.46 30.4205V26.4205C1132.73 26.4205 1131.19 27.5356 1130.66 29.183L1134.46 30.4205ZM1105.54 71.7024V67.7024C1103.33 67.7024 1101.54 69.4933 1101.54 71.7024H1105.54ZM1163.92 71.7024H1167.92C1167.92 69.4933 1166.13 67.7024 1163.92 67.7024V71.7024ZM1163.92 89.7067V93.7067C1166.13 93.7067 1167.92 91.9158 1167.92 89.7067H1163.92ZM1105.54 89.7067H1101.54C1101.54 91.9158 1103.33 93.7067 1105.54 93.7067V89.7067ZM1107.08 114.582V110.582H1082.36V114.582V118.582H1107.08V114.582ZM1082.36 114.582L1086.15 115.888L1123.81 6.79675L1120.02 5.49149L1116.24 4.18621L1078.58 113.277L1082.36 114.582ZM1120.02 5.49149V9.49149H1149.75V5.49149V1.49149H1120.02V5.49149ZM1149.75 5.49149L1145.97 6.7951L1183.57 115.886L1187.35 114.582L1191.14 113.279L1153.53 4.18787L1149.75 5.49149ZM1187.35 114.582V110.582H1162.64V114.582V118.582H1187.35V114.582ZM1162.64 114.582L1166.44 113.347L1139.12 29.1852L1135.31 30.4205L1131.51 31.6557L1158.83 115.818L1162.64 114.582ZM1135.31 30.4205V26.4205H1134.46V30.4205V34.4205H1135.31V30.4205ZM1134.46 30.4205L1130.66 29.183L1103.28 113.345L1107.08 114.582L1110.88 115.82L1138.26 31.6579L1134.46 30.4205ZM1105.54 71.7024V75.7024H1163.92V71.7024V67.7024H1105.54V71.7024ZM1163.92 71.7024H1159.92V89.7067H1163.92H1167.92V71.7024H1163.92ZM1163.92 89.7067V85.7067H1105.54V89.7067V93.7067H1163.92V89.7067ZM1105.54 89.7067H1109.54V71.7024H1105.54H1101.54V89.7067H1105.54ZM1291.73 5.49149H1295.73C1295.73 3.28235 1293.94 1.49149 1291.73 1.49149V5.49149ZM1291.73 114.582V118.582C1293.94 118.582 1295.73 116.792 1295.73 114.582H1291.73ZM1271.81 114.582L1268.52 116.857C1269.27 117.937 1270.5 118.582 1271.81 118.582V114.582ZM1224.35 45.9212L1227.64 43.6467C1226.89 42.5661 1225.66 41.9212 1224.35 41.9212V45.9212ZM1223.55 45.9212V41.9212C1221.34 41.9212 1219.55 43.712 1219.55 45.9212H1223.55ZM1223.55 114.582V118.582C1225.76 118.582 1227.55 116.792 1227.55 114.582H1223.55ZM1200.48 114.582H1196.48C1196.48 116.792 1198.28 118.582 1200.48 118.582V114.582ZM1200.48 5.49149V1.49149C1198.28 1.49149 1196.48 3.28235 1196.48 5.49149H1200.48ZM1220.73 5.49149L1224.02 3.22798C1223.28 2.14105 1222.04 1.49149 1220.73 1.49149V5.49149ZM1267.81 74.0994L1264.52 76.3629C1265.26 77.4499 1266.5 78.0994 1267.81 78.0994V74.0994ZM1268.77 74.0994V78.0994C1270.98 78.0994 1272.77 76.3086 1272.77 74.0994H1268.77ZM1268.77 5.49149V1.49149C1266.56 1.49149 1264.77 3.28235 1264.77 5.49149H1268.77ZM1291.73 5.49149H1287.73V114.582H1291.73H1295.73V5.49149H1291.73ZM1291.73 114.582V110.582H1271.81V114.582V118.582H1291.73V114.582ZM1271.81 114.582L1275.1 112.308L1227.64 43.6467L1224.35 45.9212L1221.06 48.1956L1268.52 116.857L1271.81 114.582ZM1224.35 45.9212V41.9212H1223.55V45.9212V49.9212H1224.35V45.9212ZM1223.55 45.9212H1219.55V114.582H1223.55H1227.55V45.9212H1223.55ZM1223.55 114.582V110.582H1200.48V114.582V118.582H1223.55V114.582ZM1200.48 114.582H1204.48V5.49149H1200.48H1196.48V114.582H1200.48ZM1200.48 5.49149V9.49149H1220.73V5.49149V1.49149H1200.48V5.49149ZM1220.73 5.49149L1217.43 7.75499L1264.52 76.3629L1267.81 74.0994L1271.11 71.8359L1224.02 3.22798L1220.73 5.49149ZM1267.81 74.0994V78.0994H1268.77V74.0994V70.0994H1267.81V74.0994ZM1268.77 74.0994H1272.77V5.49149H1268.77H1264.77V74.0994H1268.77ZM1268.77 5.49149V9.49149H1291.73V5.49149V1.49149H1268.77V5.49149Z" fill="white" mask="url(#path-1-outside-1_52_64)"/>
</svg>
